<svg width="256" height="256" viewBox="0 0 256 256" fill="none" xmlns="http://www.w3.org/2000/svg">
<path d="M23.7241 16H16V23.7241H23.7241V16Z" fill="#9C0000"/>
<path d="M31.4483 16H23.7241V23.7241H31.4483V16Z" fill="#9C0000"/>
<path d="M39.1724 16H31.4483V23.7241H39.1724V16Z" fill="#9C0000"/>
<path d="M46.8966 16H39.1724V23.7241H46.8966V16Z" fill="#9C0000"/>
<path d="M54.6207 16H46.8966V23.7241H54.6207V16Z" fill="#9C0000"/>
<path d="M62.3448 16H54.6207V23.7241H62.3448V16Z" fill="#9C0000"/>
<path d="M70.069 16H62.3448V23.7241H70.069V16Z" fill="#9C0000"/>
<path d="M85.5172 16H77.7931V23.7241H85.5172V16Z" fill="#9C0000"/>
<path d="M93.2414 16H85.5172V23.7241H93.2414V16Z" fill="#9C0000"/>
<path d="M100.966 16H93.2414V23.7241H100.966V16Z" fill="#9C0000"/>
<path d="M116.414 16H108.69V23.7241H116.414V16Z" fill="#9C0000"/>
<path d="M139.586 16H131.862V23.7241H139.586V16Z" fill="#9C0000"/>
<path d="M147.31 16H139.586V23.7241H147.31V16Z" fill="#9C0000"/>
<path d="M162.759 16H155.034V23.7241H162.759V16Z" fill="#9C0000"/>
<path d="M178.207 16H170.483V23.7241H178.207V16Z" fill="#9C0000"/>
<path d="M193.655 16H185.931V23.7241H193.655V16Z" fill="#9C0000"/>
<path d="M201.379 16H193.655V23.7241H201.379V16Z" fill="#9C0000"/>
<path d="M209.103 16H201.379V23.7241H209.103V16Z" fill="#9C0000"/>
<path d="M216.828 16H209.103V23.7241H216.828V16Z" fill="#9C0000"/>
<path d="M224.552 16H216.828V23.7241H224.552V16Z" fill="#9C0000"/>
<path d="M232.276 16H224.552V23.7241H232.276V16Z" fill="#9C0000"/>
<path d="M240 16H232.276V23.7241H240V16Z" fill="#9C0000"/>
<path d="M23.7241 23.7241H16V31.4483H23.7241V23.7241Z" fill="#9C0000"/>
<path d="M70.069 23.7241H62.3448V31.4483H70.069V23.7241Z" fill="#9C0000"/>
<path d="M100.966 23.7241H93.2414V31.4483H100.966V23.7241Z" fill="#9C0000"/>
<path d="M108.69 23.7241H100.966V31.4483H108.69V23.7241Z" fill="#9C0000"/>
<path d="M124.138 23.7241H116.414V31.4483H124.138V23.7241Z" fill="#9C0000"/>
<path d="M131.862 23.7241H124.138V31.4483H131.862V23.7241Z" fill="#9C0000"/>
<path d="M139.586 23.7241H131.862V31.4483H139.586V23.7241Z" fill="#9C0000"/>
<path d="M193.655 23.7241H185.931V31.4483H193.655V23.7241Z" fill="#9C0000"/>
<path d="M240 23.7241H232.276V31.4483H240V23.7241Z" fill="#9C0000"/>
<path d="M23.7241 31.4483H16V39.1724H23.7241V31.4483Z" fill="#9C0000"/>
<path d="M39.1724 31.4483H31.4483V39.1724H39.1724V31.4483Z" fill="#9C0000"/>
<path d="M46.8966 31.4483H39.1724V39.1724H46.8966V31.4483Z" fill="#9C0000"/>
<path d="M54.6207 31.4483H46.8966V39.1724H54.6207V31.4483Z" fill="#9C0000"/>
<path d="M70.069 31.4483H62.3448V39.1724H70.069V31.4483Z" fill="#9C0000"/>
<path d="M93.2414 31.4483H85.5172V39.1724H93.2414V31.4483Z" fill="#9C0000"/>
<path d="M100.966 31.4483H93.2414V39.1724H100.966V31.4483Z" fill="#9C0000"/>
<path d="M116.414 31.4483H108.69V39.1724H116.414V31.4483Z" fill="#9C0000"/>
<path d="M131.862 31.4483H124.138V39.1724H131.862V31.4483Z" fill="#9C0000"/>
<path d="M139.586 31.4483H131.862V39.1724H139.586V31.4483Z" fill="#9C0000"/>
<path d="M170.483 31.4483H162.759V39.1724H170.483V31.4483Z" fill="#9C0000"/>
<path d="M178.207 31.4483H170.483V39.1724H178.207V31.4483Z" fill="#9C0000"/>
<path d="M193.655 31.4483H185.931V39.1724H193.655V31.4483Z" fill="#9C0000"/>
<path d="M209.103 31.4483H201.379V39.1724H209.103V31.4483Z" fill="#9C0000"/>
<path d="M216.828 31.4483H209.103V39.1724H216.828V31.4483Z" fill="#9C0000"/>
<path d="M224.552 31.4483H216.828V39.1724H224.552V31.4483Z" fill="#9C0000"/>
<path d="M240 31.4483H232.276V39.1724H240V31.4483Z" fill="#9C0000"/>
<path d="M23.7241 39.1724H16V46.8966H23.7241V39.1724Z" fill="#9C0000"/>
<path d="M39.1724 39.1724H31.4483V46.8966H39.1724V39.1724Z" fill="#9C0000"/>
<path d="M46.8966 39.1724H39.1724V46.8966H46.8966V39.1724Z" fill="#9C0000"/>
<path d="M54.6207 39.1724H46.8966V46.8966H54.6207V39.1724Z" fill="#9C0000"/>
<path d="M70.069 39.1724H62.3448V46.8966H70.069V39.1724Z" fill="#9C0000"/>
<path d="M85.5172 39.1724H77.7931V46.8966H85.5172V39.1724Z" fill="#9C0000"/>
<path d="M93.2414 39.1724H85.5172V46.8966H93.2414V39.1724Z" fill="#9C0000"/>
<path d="M124.138 39.1724H116.414V46.8966H124.138V39.1724Z" fill="#9C0000"/>
<path d="M147.31 39.1724H139.586V46.8966H147.31V39.1724Z" fill="#9C0000"/>
<path d="M155.034 39.1724H147.31V46.8966H155.034V39.1724Z" fill="#9C0000"/>
<path d="M162.759 39.1724H155.034V46.8966H162.759V39.1724Z" fill="#9C0000"/>
<path d="M193.655 39.1724H185.931V46.8966H193.655V39.1724Z" fill="#9C0000"/>
<path d="M209.103 39.1724H201.379V46.8966H209.103V39.1724Z" fill="#9C0000"/>
<path d="M216.828 39.1724H209.103V46.8966H216.828V39.1724Z" fill="#9C0000"/>
<path d="M224.552 39.1724H216.828V46.8966H224.552V39.1724Z" fill="#9C0000"/>
<path d="M240 39.1724H232.276V46.8966H240V39.1724Z" fill="#9C0000"/>
<path d="M23.7241 46.8966H16V54.6207H23.7241V46.8966Z" fill="#9C0000"/>
<path d="M39.1724 46.8966H31.4483V54.6207H39.1724V46.8966Z" fill="#9C0000"/>
<path d="M46.8966 46.8966H39.1724V54.6207H46.8966V46.8966Z" fill="#9C0000"/>
<path d="M54.6207 46.8966H46.8966V54.6207H54.6207V46.8966Z" fill="#9C0000"/>
<path d="M70.069 46.8966H62.3448V54.6207H70.069V46.8966Z" fill="#9C0000"/>
<path d="M93.2414 46.8966H85.5172V54.6207H93.2414V46.8966Z" fill="#9C0000"/>
<path d="M100.966 46.8966H93.2414V54.6207H100.966V46.8966Z" fill="#9C0000"/>
<path d="M147.31 46.8966H139.586V54.6207H147.31V46.8966Z" fill="#9C0000"/>
<path d="M162.759 46.8966H155.034V54.6207H162.759V46.8966Z" fill="#9C0000"/>
<path d="M170.483 46.8966H162.759V54.6207H170.483V46.8966Z" fill="#9C0000"/>
<path d="M178.207 46.8966H170.483V54.6207H178.207V46.8966Z" fill="#9C0000"/>
<path d="M193.655 46.8966H185.931V54.6207H193.655V46.8966Z" fill="#9C0000"/>
<path d="M209.103 46.8966H201.379V54.6207H209.103V46.8966Z" fill="#9C0000"/>
<path d="M216.828 46.8966H209.103V54.6207H216.828V46.8966Z" fill="#9C0000"/>
<path d="M224.552 46.8966H216.828V54.6207H224.552V46.8966Z" fill="#9C0000"/>
<path d="M240 46.8966H232.276V54.6207H240V46.8966Z" fill="#9C0000"/>
<path d="M23.7241 54.6207H16V62.3448H23.7241V54.6207Z" fill="#9C0000"/>
<path d="M70.069 54.6207H62.3448V62.3448H70.069V54.6207Z" fill="#9C0000"/>
<path d="M85.5172 54.6207H77.7931V62.3448H85.5172V54.6207Z" fill="#9C0000"/>
<path d="M108.69 54.6207H100.966V62.3448H108.69V54.6207Z" fill="#9C0000"/>
<path d="M139.586 54.6207H131.862V62.3448H139.586V54.6207Z" fill="#9C0000"/>
<path d="M147.31 54.6207H139.586V62.3448H147.31V54.6207Z" fill="#9C0000"/>
<path d="M155.034 54.6207H147.31V62.3448H155.034V54.6207Z" fill="#9C0000"/>
<path d="M170.483 54.6207H162.759V62.3448H170.483V54.6207Z" fill="#9C0000"/>
<path d="M193.655 54.6207H185.931V62.3448H193.655V54.6207Z" fill="#9C0000"/>
<path d="M240 54.6207H232.276V62.3448H240V54.6207Z" fill="#9C0000"/>
<path d="M23.7241 62.3448H16V70.069H23.7241V62.3448Z" fill="#9C0000"/>
<path d="M31.4483 62.3448H23.7241V70.069H31.4483V62.3448Z" fill="#9C0000"/>
<path d="M39.1724 62.3448H31.4483V70.069H39.1724V62.3448Z" fill="#9C0000"/>
<path d="M46.8966 62.3448H39.1724V70.069H46.8966V62.3448Z" fill="#9C0000"/>
<path d="M54.6207 62.3448H46.8966V70.069H54.6207V62.3448Z" fill="#9C0000"/>
<path d="M62.3448 62.3448H54.6207V70.069H62.3448V62.3448Z" fill="#9C0000"/>
<path d="M70.069 62.3448H62.3448V70.069H70.069V62.3448Z" fill="#9C0000"/>
<path d="M85.5172 62.3448H77.7931V70.069H85.5172V62.3448Z" fill="#9C0000"/>
<path d="M100.966 62.3448H93.2414V70.069H100.966V62.3448Z" fill="#9C0000"/>
<path d="M116.414 62.3448H108.69V70.069H116.414V62.3448Z" fill="#9C0000"/>
<path d="M131.862 62.3448H124.138V70.069H131.862V62.3448Z" fill="#9C0000"/>
<path d="M147.31 62.3448H139.586V70.069H147.31V62.3448Z" fill="#9C0000"/>
<path d="M162.759 62.3448H155.034V70.069H162.759V62.3448Z" fill="#9C0000"/>
<path d="M178.207 62.3448H170.483V70.069H178.207V62.3448Z" fill="#9C0000"/>
<path d="M193.655 62.3448H185.931V70.069H193.655V62.3448Z" fill="#9C0000"/>
<path d="M201.379 62.3448H193.655V70.069H201.379V62.3448Z" fill="#9C0000"/>
<path d="M209.103 62.3448H201.379V70.069H209.103V62.3448Z" fill="#9C0000"/>
<path d="M216.828 62.3448H209.103V70.069H216.828V62.3448Z" fill="#9C0000"/>
<path d="M224.552 62.3448H216.828V70.069H224.552V62.3448Z" fill="#9C0000"/>
<path d="M232.276 62.3448H224.552V70.069H232.276V62.3448Z" fill="#9C0000"/>
<path d="M240 62.3448H232.276V70.069H240V62.3448Z" fill="#9C0000"/>
<path d="M93.2414 70.069H85.5172V77.7931H93.2414V70.069Z" fill="#9C0000"/>
<path d="M139.586 70.069H131.862V77.7931H139.586V70.069Z" fill="#9C0000"/>
<path d="M155.034 70.069H147.31V77.7931H155.034V70.069Z" fill="#9C0000"/>
<path d="M62.3448 77.7931H54.6207V85.5172H62.3448V77.7931Z" fill="#9C0000"/>
<path d="M70.069 77.7931H62.3448V85.5172H70.069V77.7931Z" fill="#9C0000"/>
<path d="M85.5172 77.7931H77.7931V85.5172H85.5172V77.7931Z" fill="#9C0000"/>
<path d="M100.966 77.7931H93.2414V85.5172H100.966V77.7931Z" fill="#9C0000"/>
<path d="M108.69 77.7931H100.966V85.5172H108.69V77.7931Z" fill="#9C0000"/>
<path d="M116.414 77.7931H108.69V85.5172H116.414V77.7931Z" fill="#9C0000"/>
<path d="M131.862 77.7931H124.138V85.5172H131.862V77.7931Z" fill="#9C0000"/>
<path d="M155.034 77.7931H147.31V85.5172H155.034V77.7931Z" fill="#9C0000"/>
<path d="M170.483 77.7931H162.759V85.5172H170.483V77.7931Z" fill="#9C0000"/>
<path d="M178.207 77.7931H170.483V85.5172H178.207V77.7931Z" fill="#9C0000"/>
<path d="M185.931 77.7931H178.207V85.5172H185.931V77.7931Z" fill="#9C0000"/>
<path d="M201.379 77.7931H193.655V85.5172H201.379V77.7931Z" fill="#9C0000"/>
<path d="M216.828 77.7931H209.103V85.5172H216.828V77.7931Z" fill="#9C0000"/>
<path d="M240 77.7931H232.276V85.5172H240V77.7931Z" fill="#9C0000"/>
<path d="M31.4483 85.5172H23.7241V93.2414H31.4483V85.5172Z" fill="#9C0000"/>
<path d="M39.1724 85.5172H31.4483V93.2414H39.1724V85.5172Z" fill="#9C0000"/>
<path d="M85.5172 85.5172H77.7931V93.2414H85.5172V85.5172Z" fill="#9C0000"/>
<path d="M93.2414 85.5172H85.5172V93.2414H93.2414V85.5172Z" fill="#9C0000"/>
<path d="M100.966 85.5172H93.2414V93.2414H100.966V85.5172Z" fill="#9C0000"/>
<path d="M108.69 85.5172H100.966V93.2414H108.69V85.5172Z" fill="#9C0000"/>
<path d="M116.414 85.5172H108.69V93.2414H116.414V85.5172Z" fill="#9C0000"/>
<path d="M124.138 85.5172H116.414V93.2414H124.138V85.5172Z" fill="#9C0000"/>
<path d="M131.862 85.5172H124.138V93.2414H131.862V85.5172Z" fill="#9C0000"/>
<path d="M147.31 85.5172H139.586V93.2414H147.31V85.5172Z" fill="#9C0000"/>
<path d="M155.034 85.5172H147.31V93.2414H155.034V85.5172Z" fill="#9C0000"/>
<path d="M201.379 85.5172H193.655V93.2414H201.379V85.5172Z" fill="#9C0000"/>
<path d="M216.828 85.5172H209.103V93.2414H216.828V85.5172Z" fill="#9C0000"/>
<path d="M232.276 85.5172H224.552V93.2414H232.276V85.5172Z" fill="#9C0000"/>
<path d="M39.1724 93.2414H31.4483V100.966H39.1724V93.2414Z" fill="#9C0000"/>
<path d="M46.8966 93.2414H39.1724V100.966H46.8966V93.2414Z" fill="#9C0000"/>
<path d="M70.069 93.2414H62.3448V100.966H70.069V93.2414Z" fill="#9C0000"/>
<path d="M77.7931 93.2414H70.069V100.966H77.7931V93.2414Z" fill="#9C0000"/>
<path d="M85.5172 93.2414H77.7931V100.966H85.5172V93.2414Z" fill="#9C0000"/>
<path d="M93.2414 93.2414H85.5172V100.966H93.2414V93.2414Z" fill="#9C0000"/>
<path d="M100.966 93.2414H93.2414V100.966H100.966V93.2414Z" fill="#9C0000"/>
<path d="M147.31 93.2414H139.586V100.966H147.31V93.2414Z" fill="#9C0000"/>
<path d="M155.034 93.2414H147.31V100.966H155.034V93.2414Z" fill="#9C0000"/>
<path d="M162.759 93.2414H155.034V100.966H162.759V93.2414Z" fill="#9C0000"/>
<path d="M170.483 93.2414H162.759V100.966H170.483V93.2414Z" fill="#9C0000"/>
<path d="M185.931 93.2414H178.207V100.966H185.931V93.2414Z" fill="#9C0000"/>
<path d="M201.379 93.2414H193.655V100.966H201.379V93.2414Z" fill="#9C0000"/>
<path d="M209.103 93.2414H201.379V100.966H209.103V93.2414Z" fill="#9C0000"/>
<path d="M62.3448 100.966H54.6207V108.69H62.3448V100.966Z" fill="#9C0000"/>
<path d="M100.966 100.966H93.2414V108.69H100.966V100.966Z" fill="#9C0000"/>
<path d="M131.862 100.966H124.138V108.69H131.862V100.966Z" fill="#9C0000"/>
<path d="M147.31 100.966H139.586V108.69H147.31V100.966Z" fill="#9C0000"/>
<path d="M170.483 100.966H162.759V108.69H170.483V100.966Z" fill="#9C0000"/>
<path d="M193.655 100.966H185.931V108.69H193.655V100.966Z" fill="#9C0000"/>
<path d="M216.828 100.966H209.103V108.69H216.828V100.966Z" fill="#9C0000"/>
<path d="M23.7241 108.69H16V116.414H23.7241V108.69Z" fill="#9C0000"/>
<path d="M31.4483 108.69H23.7241V116.414H31.4483V108.69Z" fill="#9C0000"/>
<path d="M39.1724 108.69H31.4483V116.414H39.1724V108.69Z" fill="#9C0000"/>
<path d="M54.6207 108.69H46.8966V116.414H54.6207V108.69Z" fill="#9C0000"/>
<path d="M62.3448 108.69H54.6207V116.414H62.3448V108.69Z" fill="#9C0000"/>
<path d="M70.069 108.69H62.3448V116.414H70.069V108.69Z" fill="#9C0000"/>
<path d="M77.7931 108.69H70.069V116.414H77.7931V108.69Z" fill="#9C0000"/>
<path d="M93.2414 108.69H85.5172V116.414H93.2414V108.69Z" fill="#9C0000"/>
<path d="M100.966 108.69H93.2414V116.414H100.966V108.69Z" fill="#9C0000"/>
<path d="M108.69 108.69H100.966V116.414H108.69V108.69Z" fill="#9C0000"/>
<path d="M116.414 108.69H108.69V116.414H116.414V108.69Z" fill="#9C0000"/>
<path d="M124.138 108.69H116.414V116.414H124.138V108.69Z" fill="#9C0000"/>
<path d="M131.862 108.69H124.138V116.414H131.862V108.69Z" fill="#9C0000"/>
<path d="M139.586 108.69H131.862V116.414H139.586V108.69Z" fill="#9C0000"/>
<path d="M178.207 108.69H170.483V116.414H178.207V108.69Z" fill="#9C0000"/>
<path d="M193.655 108.69H185.931V116.414H193.655V108.69Z" fill="#9C0000"/>
<path d="M209.103 108.69H201.379V116.414H209.103V108.69Z" fill="#9C0000"/>
<path d="M224.552 108.69H216.828V116.414H224.552V108.69Z" fill="#9C0000"/>
<path d="M46.8966 116.414H39.1724V124.138H46.8966V116.414Z" fill="#9C0000"/>
<path d="M77.7931 116.414H70.069V124.138H77.7931V116.414Z" fill="#9C0000"/>
<path d="M93.2414 116.414H85.5172V124.138H93.2414V116.414Z" fill="#9C0000"/>
<path d="M100.966 116.414H93.2414V124.138H100.966V116.414Z" fill="#9C0000"/>
<path d="M108.69 116.414H100.966V124.138H108.69V116.414Z" fill="#9C0000"/>
<path d="M124.138 116.414H116.414V124.138H124.138V116.414Z" fill="#9C0000"/>
<path d="M131.862 116.414H124.138V124.138H131.862V116.414Z" fill="#9C0000"/>
<path d="M147.31 116.414H139.586V124.138H147.31V116.414Z" fill="#9C0000"/>
<path d="M155.034 116.414H147.31V124.138H155.034V116.414Z" fill="#9C0000"/>
<path d="M240 116.414H232.276V124.138H240V116.414Z" fill="#9C0000"/>
<path d="M23.7241 124.138H16V131.862H23.7241V124.138Z" fill="#9C0000"/>
<path d="M39.1724 124.138H31.4483V131.862H39.1724V124.138Z" fill="#9C0000"/>
<path d="M70.069 124.138H62.3448V131.862H70.069V124.138Z" fill="#9C0000"/>
<path d="M85.5172 124.138H77.7931V131.862H85.5172V124.138Z" fill="#9C0000"/>
<path d="M100.966 124.138H93.2414V131.862H100.966V124.138Z" fill="#9C0000"/>
<path d="M116.414 124.138H108.69V131.862H116.414V124.138Z" fill="#9C0000"/>
<path d="M124.138 124.138H116.414V131.862H124.138V124.138Z" fill="#9C0000"/>
<path d="M131.862 124.138H124.138V131.862H131.862V124.138Z" fill="#9C0000"/>
<path d="M155.034 124.138H147.31V131.862H155.034V124.138Z" fill="#9C0000"/>
<path d="M162.759 124.138H155.034V131.862H162.759V124.138Z" fill="#9C0000"/>
<path d="M170.483 124.138H162.759V131.862H170.483V124.138Z" fill="#9C0000"/>
<path d="M185.931 124.138H178.207V131.862H185.931V124.138Z" fill="#9C0000"/>
<path d="M201.379 124.138H193.655V131.862H201.379V124.138Z" fill="#9C0000"/>
<path d="M39.1724 131.862H31.4483V139.586H39.1724V131.862Z" fill="#9C0000"/>
<path d="M62.3448 131.862H54.6207V139.586H62.3448V131.862Z" fill="#9C0000"/>
<path d="M77.7931 131.862H70.069V139.586H77.7931V131.862Z" fill="#9C0000"/>
<path d="M93.2414 131.862H85.5172V139.586H93.2414V131.862Z" fill="#9C0000"/>
<path d="M100.966 131.862H93.2414V139.586H100.966V131.862Z" fill="#9C0000"/>
<path d="M116.414 131.862H108.69V139.586H116.414V131.862Z" fill="#9C0000"/>
<path d="M124.138 131.862H116.414V139.586H124.138V131.862Z" fill="#9C0000"/>
<path d="M139.586 131.862H131.862V139.586H139.586V131.862Z" fill="#9C0000"/>
<path d="M155.034 131.862H147.31V139.586H155.034V131.862Z" fill="#9C0000"/>
<path d="M162.759 131.862H155.034V139.586H162.759V131.862Z" fill="#9C0000"/>
<path d="M178.207 131.862H170.483V139.586H178.207V131.862Z" fill="#9C0000"/>
<path d="M185.931 131.862H178.207V139.586H185.931V131.862Z" fill="#9C0000"/>
<path d="M201.379 131.862H193.655V139.586H201.379V131.862Z" fill="#9C0000"/>
<path d="M240 131.862H232.276V139.586H240V131.862Z" fill="#9C0000"/>
<path d="M31.4483 139.586H23.7241V147.31H31.4483V139.586Z" fill="#9C0000"/>
<path d="M46.8966 139.586H39.1724V147.31H46.8966V139.586Z" fill="#9C0000"/>
<path d="M62.3448 139.586H54.6207V147.31H62.3448V139.586Z" fill="#9C0000"/>
<path d="M70.069 139.586H62.3448V147.31H70.069V139.586Z" fill="#9C0000"/>
<path d="M77.7931 139.586H70.069V147.31H77.7931V139.586Z" fill="#9C0000"/>
<path d="M85.5172 139.586H77.7931V147.31H85.5172V139.586Z" fill="#9C0000"/>
<path d="M93.2414 139.586H85.5172V147.31H93.2414V139.586Z" fill="#9C0000"/>
<path d="M108.69 139.586H100.966V147.31H108.69V139.586Z" fill="#9C0000"/>
<path d="M124.138 139.586H116.414V147.31H124.138V139.586Z" fill="#9C0000"/>
<path d="M155.034 139.586H147.31V147.31H155.034V139.586Z" fill="#9C0000"/>
<path d="M162.759 139.586H155.034V147.31H162.759V139.586Z" fill="#9C0000"/>
<path d="M178.207 139.586H170.483V147.31H178.207V139.586Z" fill="#9C0000"/>
<path d="M193.655 139.586H185.931V147.31H193.655V139.586Z" fill="#9C0000"/>
<path d="M216.828 139.586H209.103V147.31H216.828V139.586Z" fill="#9C0000"/>
<path d="M232.276 139.586H224.552V147.31H232.276V139.586Z" fill="#9C0000"/>
<path d="M23.7241 147.31H16V155.034H23.7241V147.31Z" fill="#9C0000"/>
<path d="M39.1724 147.31H31.4483V155.034H39.1724V147.31Z" fill="#9C0000"/>
<path d="M54.6207 147.31H46.8966V155.034H54.6207V147.31Z" fill="#9C0000"/>
<path d="M77.7931 147.31H70.069V155.034H77.7931V147.31Z" fill="#9C0000"/>
<path d="M100.966 147.31H93.2414V155.034H100.966V147.31Z" fill="#9C0000"/>
<path d="M116.414 147.31H108.69V155.034H116.414V147.31Z" fill="#9C0000"/>
<path d="M124.138 147.31H116.414V155.034H124.138V147.31Z" fill="#9C0000"/>
<path d="M139.586 147.31H131.862V155.034H139.586V147.31Z" fill="#9C0000"/>
<path d="M147.31 147.31H139.586V155.034H147.31V147.31Z" fill="#9C0000"/>
<path d="M162.759 147.31H155.034V155.034H162.759V147.31Z" fill="#9C0000"/>
<path d="M170.483 147.31H162.759V155.034H170.483V147.31Z" fill="#9C0000"/>
<path d="M185.931 147.31H178.207V155.034H185.931V147.31Z" fill="#9C0000"/>
<path d="M209.103 147.31H201.379V155.034H209.103V147.31Z" fill="#9C0000"/>
<path d="M232.276 147.31H224.552V155.034H232.276V147.31Z" fill="#9C0000"/>
<path d="M240 147.31H232.276V155.034H240V147.31Z" fill="#9C0000"/>
<path d="M23.7241 155.034H16V162.759H23.7241V155.034Z" fill="#9C0000"/>
<path d="M31.4483 155.034H23.7241V162.759H31.4483V155.034Z" fill="#9C0000"/>
<path d="M46.8966 155.034H39.1724V162.759H46.8966V155.034Z" fill="#9C0000"/>
<path d="M54.6207 155.034H46.8966V162.759H54.6207V155.034Z" fill="#9C0000"/>
<path d="M62.3448 155.034H54.6207V162.759H62.3448V155.034Z" fill="#9C0000"/>
<path d="M70.069 155.034H62.3448V162.759H70.069V155.034Z" fill="#9C0000"/>
<path d="M77.7931 155.034H70.069V162.759H77.7931V155.034Z" fill="#9C0000"/>
<path d="M85.5172 155.034H77.7931V162.759H85.5172V155.034Z" fill="#9C0000"/>
<path d="M108.69 155.034H100.966V162.759H108.69V155.034Z" fill="#9C0000"/>
<path d="M124.138 155.034H116.414V162.759H124.138V155.034Z" fill="#9C0000"/>
<path d="M131.862 155.034H124.138V162.759H131.862V155.034Z" fill="#9C0000"/>
<path d="M139.586 155.034H131.862V162.759H139.586V155.034Z" fill="#9C0000"/>
<path d="M162.759 155.034H155.034V162.759H162.759V155.034Z" fill="#9C0000"/>
<path d="M170.483 155.034H162.759V162.759H170.483V155.034Z" fill="#9C0000"/>
<path d="M193.655 155.034H185.931V162.759H193.655V155.034Z" fill="#9C0000"/>
<path d="M201.379 155.034H193.655V162.759H201.379V155.034Z" fill="#9C0000"/>
<path d="M240 155.034H232.276V162.759H240V155.034Z" fill="#9C0000"/>
<path d="M23.7241 162.759H16V170.483H23.7241V162.759Z" fill="#9C0000"/>
<path d="M39.1724 162.759H31.4483V170.483H39.1724V162.759Z" fill="#9C0000"/>
<path d="M46.8966 162.759H39.1724V170.483H46.8966V162.759Z" fill="#9C0000"/>
<path d="M62.3448 162.759H54.6207V170.483H62.3448V162.759Z" fill="#9C0000"/>
<path d="M77.7931 162.759H70.069V170.483H77.7931V162.759Z" fill="#9C0000"/>
<path d="M85.5172 162.759H77.7931V170.483H85.5172V162.759Z" fill="#9C0000"/>
<path d="M100.966 162.759H93.2414V170.483H100.966V162.759Z" fill="#9C0000"/>
<path d="M108.69 162.759H100.966V170.483H108.69V162.759Z" fill="#9C0000"/>
<path d="M116.414 162.759H108.69V170.483H116.414V162.759Z" fill="#9C0000"/>
<path d="M124.138 162.759H116.414V170.483H124.138V162.759Z" fill="#9C0000"/>
<path d="M139.586 162.759H131.862V170.483H139.586V162.759Z" fill="#9C0000"/>
<path d="M147.31 162.759H139.586V170.483H147.31V162.759Z" fill="#9C0000"/>
<path d="M178.207 162.759H170.483V170.483H178.207V162.759Z" fill="#9C0000"/>
<path d="M185.931 162.759H178.207V170.483H185.931V162.759Z" fill="#9C0000"/>
<path d="M224.552 162.759H216.828V170.483H224.552V162.759Z" fill="#9C0000"/>
<path d="M232.276 162.759H224.552V170.483H232.276V162.759Z" fill="#9C0000"/>
<path d="M31.4483 170.483H23.7241V178.207H31.4483V170.483Z" fill="#9C0000"/>
<path d="M62.3448 170.483H54.6207V178.207H62.3448V170.483Z" fill="#9C0000"/>
<path d="M70.069 170.483H62.3448V178.207H70.069V170.483Z" fill="#9C0000"/>
<path d="M77.7931 170.483H70.069V178.207H77.7931V170.483Z" fill="#9C0000"/>
<path d="M108.69 170.483H100.966V178.207H108.69V170.483Z" fill="#9C0000"/>
<path d="M124.138 170.483H116.414V178.207H124.138V170.483Z" fill="#9C0000"/>
<path d="M131.862 170.483H124.138V178.207H131.862V170.483Z" fill="#9C0000"/>
<path d="M139.586 170.483H131.862V178.207H139.586V170.483Z" fill="#9C0000"/>
<path d="M147.31 170.483H139.586V178.207H147.31V170.483Z" fill="#9C0000"/>
<path d="M162.759 170.483H155.034V178.207H162.759V170.483Z" fill="#9C0000"/>
<path d="M170.483 170.483H162.759V178.207H170.483V170.483Z" fill="#9C0000"/>
<path d="M178.207 170.483H170.483V178.207H178.207V170.483Z" fill="#9C0000"/>
<path d="M185.931 170.483H178.207V178.207H185.931V170.483Z" fill="#9C0000"/>
<path d="M193.655 170.483H185.931V178.207H193.655V170.483Z" fill="#9C0000"/>
<path d="M201.379 170.483H193.655V178.207H201.379V170.483Z" fill="#9C0000"/>
<path d="M209.103 170.483H201.379V178.207H209.103V170.483Z" fill="#9C0000"/>
<path d="M216.828 170.483H209.103V178.207H216.828V170.483Z" fill="#9C0000"/>
<path d="M224.552 170.483H216.828V178.207H224.552V170.483Z" fill="#9C0000"/>
<path d="M232.276 170.483H224.552V178.207H232.276V170.483Z" fill="#9C0000"/>
<path d="M240 170.483H232.276V178.207H240V170.483Z" fill="#9C0000"/>
<path d="M85.5172 178.207H77.7931V185.931H85.5172V178.207Z" fill="#9C0000"/>
<path d="M93.2414 178.207H85.5172V185.931H93.2414V178.207Z" fill="#9C0000"/>
<path d="M116.414 178.207H108.69V185.931H116.414V178.207Z" fill="#9C0000"/>
<path d="M124.138 178.207H116.414V185.931H124.138V178.207Z" fill="#9C0000"/>
<path d="M131.862 178.207H124.138V185.931H131.862V178.207Z" fill="#9C0000"/>
<path d="M139.586 178.207H131.862V185.931H139.586V178.207Z" fill="#9C0000"/>
<path d="M147.31 178.207H139.586V185.931H147.31V178.207Z" fill="#9C0000"/>
<path d="M155.034 178.207H147.31V185.931H155.034V178.207Z" fill="#9C0000"/>
<path d="M162.759 178.207H155.034V185.931H162.759V178.207Z" fill="#9C0000"/>
<path d="M170.483 178.207H162.759V185.931H170.483V178.207Z" fill="#9C0000"/>
<path d="M178.207 178.207H170.483V185.931H178.207V178.207Z" fill="#9C0000"/>
<path d="M209.103 178.207H201.379V185.931H209.103V178.207Z" fill="#9C0000"/>
<path d="M240 178.207H232.276V185.931H240V178.207Z" fill="#9C0000"/>
<path d="M23.7241 185.931H16V193.655H23.7241V185.931Z" fill="#9C0000"/>
<path d="M31.4483 185.931H23.7241V193.655H31.4483V185.931Z" fill="#9C0000"/>
<path d="M39.1724 185.931H31.4483V193.655H39.1724V185.931Z" fill="#9C0000"/>
<path d="M46.8966 185.931H39.1724V193.655H46.8966V185.931Z" fill="#9C0000"/>
<path d="M54.6207 185.931H46.8966V193.655H54.6207V185.931Z" fill="#9C0000"/>
<path d="M62.3448 185.931H54.6207V193.655H62.3448V185.931Z" fill="#9C0000"/>
<path d="M70.069 185.931H62.3448V193.655H70.069V185.931Z" fill="#9C0000"/>
<path d="M93.2414 185.931H85.5172V193.655H93.2414V185.931Z" fill="#9C0000"/>
<path d="M116.414 185.931H108.69V193.655H116.414V185.931Z" fill="#9C0000"/>
<path d="M139.586 185.931H131.862V193.655H139.586V185.931Z" fill="#9C0000"/>
<path d="M155.034 185.931H147.31V193.655H155.034V185.931Z" fill="#9C0000"/>
<path d="M162.759 185.931H155.034V193.655H162.759V185.931Z" fill="#9C0000"/>
<path d="M170.483 185.931H162.759V193.655H170.483V185.931Z" fill="#9C0000"/>
<path d="M178.207 185.931H170.483V193.655H178.207V185.931Z" fill="#9C0000"/>
<path d="M193.655 185.931H185.931V193.655H193.655V185.931Z" fill="#9C0000"/>
<path d="M209.103 185.931H201.379V193.655H209.103V185.931Z" fill="#9C0000"/>
<path d="M216.828 185.931H209.103V193.655H216.828V185.931Z" fill="#9C0000"/>
<path d="M232.276 185.931H224.552V193.655H232.276V185.931Z" fill="#9C0000"/>
<path d="M240 185.931H232.276V193.655H240V185.931Z" fill="#9C0000"/>
<path d="M23.7241 193.655H16V201.379H23.7241V193.655Z" fill="#9C0000"/>
<path d="M70.069 193.655H62.3448V201.379H70.069V193.655Z" fill="#9C0000"/>
<path d="M85.5172 193.655H77.7931V201.379H85.5172V193.655Z" fill="#9C0000"/>
<path d="M100.966 193.655H93.2414V201.379H100.966V193.655Z" fill="#9C0000"/>
<path d="M108.69 193.655H100.966V201.379H108.69V193.655Z" fill="#9C0000"/>
<path d="M155.034 193.655H147.31V201.379H155.034V193.655Z" fill="#9C0000"/>
<path d="M162.759 193.655H155.034V201.379H162.759V193.655Z" fill="#9C0000"/>
<path d="M178.207 193.655H170.483V201.379H178.207V193.655Z" fill="#9C0000"/>
<path d="M209.103 193.655H201.379V201.379H209.103V193.655Z" fill="#9C0000"/>
<path d="M216.828 193.655H209.103V201.379H216.828V193.655Z" fill="#9C0000"/>
<path d="M23.7241 201.379H16V209.103H23.7241V201.379Z" fill="#9C0000"/>
<path d="M39.1724 201.379H31.4483V209.103H39.1724V201.379Z" fill="#9C0000"/>
<path d="M46.8966 201.379H39.1724V209.103H46.8966V201.379Z" fill="#9C0000"/>
<path d="M54.6207 201.379H46.8966V209.103H54.6207V201.379Z" fill="#9C0000"/>
<path d="M70.069 201.379H62.3448V209.103H70.069V201.379Z" fill="#9C0000"/>
<path d="M131.862 201.379H124.138V209.103H131.862V201.379Z" fill="#9C0000"/>
<path d="M162.759 201.379H155.034V209.103H162.759V201.379Z" fill="#9C0000"/>
<path d="M178.207 201.379H170.483V209.103H178.207V201.379Z" fill="#9C0000"/>
<path d="M185.931 201.379H178.207V209.103H185.931V201.379Z" fill="#9C0000"/>
<path d="M193.655 201.379H185.931V209.103H193.655V201.379Z" fill="#9C0000"/>
<path d="M201.379 201.379H193.655V209.103H201.379V201.379Z" fill="#9C0000"/>
<path d="M209.103 201.379H201.379V209.103H209.103V201.379Z" fill="#9C0000"/>
<path d="M216.828 201.379H209.103V209.103H216.828V201.379Z" fill="#9C0000"/>
<path d="M224.552 201.379H216.828V209.103H224.552V201.379Z" fill="#9C0000"/>
<path d="M232.276 201.379H224.552V209.103H232.276V201.379Z" fill="#9C0000"/>
<path d="M23.7241 209.103H16V216.828H23.7241V209.103Z" fill="#9C0000"/>
<path d="M39.1724 209.103H31.4483V216.828H39.1724V209.103Z" fill="#9C0000"/>
<path d="M46.8966 209.103H39.1724V216.828H46.8966V209.103Z" fill="#9C0000"/>
<path d="M54.6207 209.103H46.8966V216.828H54.6207V209.103Z" fill="#9C0000"/>
<path d="M70.069 209.103H62.3448V216.828H70.069V209.103Z" fill="#9C0000"/>
<path d="M93.2414 209.103H85.5172V216.828H93.2414V209.103Z" fill="#9C0000"/>
<path d="M100.966 209.103H93.2414V216.828H100.966V209.103Z" fill="#9C0000"/>
<path d="M116.414 209.103H108.69V216.828H116.414V209.103Z" fill="#9C0000"/>
<path d="M131.862 209.103H124.138V216.828H131.862V209.103Z" fill="#9C0000"/>
<path d="M139.586 209.103H131.862V216.828H139.586V209.103Z" fill="#9C0000"/>
<path d="M155.034 209.103H147.31V216.828H155.034V209.103Z" fill="#9C0000"/>
<path d="M201.379 209.103H193.655V216.828H201.379V209.103Z" fill="#9C0000"/>
<path d="M216.828 209.103H209.103V216.828H216.828V209.103Z" fill="#9C0000"/>
<path d="M224.552 209.103H216.828V216.828H224.552V209.103Z" fill="#9C0000"/>
<path d="M240 209.103H232.276V216.828H240V209.103Z" fill="#9C0000"/>
<path d="M23.7241 216.828H16V224.552H23.7241V216.828Z" fill="#9C0000"/>
<path d="M39.1724 216.828H31.4483V224.552H39.1724V216.828Z" fill="#9C0000"/>
<path d="M46.8966 216.828H39.1724V224.552H46.8966V216.828Z" fill="#9C0000"/>
<path d="M54.6207 216.828H46.8966V224.552H54.6207V216.828Z" fill="#9C0000"/>
<path d="M70.069 216.828H62.3448V224.552H70.069V216.828Z" fill="#9C0000"/>
<path d="M100.966 216.828H93.2414V224.552H100.966V216.828Z" fill="#9C0000"/>
<path d="M108.69 216.828H100.966V224.552H108.69V216.828Z" fill="#9C0000"/>
<path d="M131.862 216.828H124.138V224.552H131.862V216.828Z" fill="#9C0000"/>
<path d="M178.207 216.828H170.483V224.552H178.207V216.828Z" fill="#9C0000"/>
<path d="M185.931 216.828H178.207V224.552H185.931V216.828Z" fill="#9C0000"/>
<path d="M201.379 216.828H193.655V224.552H201.379V216.828Z" fill="#9C0000"/>
<path d="M216.828 216.828H209.103V224.552H216.828V216.828Z" fill="#9C0000"/>
<path d="M224.552 216.828H216.828V224.552H224.552V216.828Z" fill="#9C0000"/>
<path d="M23.7241 224.552H16V232.276H23.7241V224.552Z" fill="#9C0000"/>
<path d="M70.069 224.552H62.3448V232.276H70.069V224.552Z" fill="#9C0000"/>
<path d="M100.966 224.552H93.2414V232.276H100.966V224.552Z" fill="#9C0000"/>
<path d="M108.69 224.552H100.966V232.276H108.69V224.552Z" fill="#9C0000"/>
<path d="M116.414 224.552H108.69V232.276H116.414V224.552Z" fill="#9C0000"/>
<path d="M131.862 224.552H124.138V232.276H131.862V224.552Z" fill="#9C0000"/>
<path d="M139.586 224.552H131.862V232.276H139.586V224.552Z" fill="#9C0000"/>
<path d="M147.31 224.552H139.586V232.276H147.31V224.552Z" fill="#9C0000"/>
<path d="M162.759 224.552H155.034V232.276H162.759V224.552Z" fill="#9C0000"/>
<path d="M170.483 224.552H162.759V232.276H170.483V224.552Z" fill="#9C0000"/>
<path d="M185.931 224.552H178.207V232.276H185.931V224.552Z" fill="#9C0000"/>
<path d="M193.655 224.552H185.931V232.276H193.655V224.552Z" fill="#9C0000"/>
<path d="M209.103 224.552H201.379V232.276H209.103V224.552Z" fill="#9C0000"/>
<path d="M232.276 224.552H224.552V232.276H232.276V224.552Z" fill="#9C0000"/>
<path d="M240 224.552H232.276V232.276H240V224.552Z" fill="#9C0000"/>
<path d="M23.7241 232.276H16V240H23.7241V232.276Z" fill="#9C0000"/>
<path d="M31.4483 232.276H23.7241V240H31.4483V232.276Z" fill="#9C0000"/>
<path d="M39.1724 232.276H31.4483V240H39.1724V232.276Z" fill="#9C0000"/>
<path d="M46.8966 232.276H39.1724V240H46.8966V232.276Z" fill="#9C0000"/>
<path d="M54.6207 232.276H46.8966V240H54.6207V232.276Z" fill="#9C0000"/>
<path d="M62.3448 232.276H54.6207V240H62.3448V232.276Z" fill="#9C0000"/>
<path d="M70.069 232.276H62.3448V240H70.069V232.276Z" fill="#9C0000"/>
<path d="M93.2414 232.276H85.5172V240H93.2414V232.276Z" fill="#9C0000"/>
<path d="M116.414 232.276H108.69V240H116.414V232.276Z" fill="#9C0000"/>
<path d="M131.862 232.276H124.138V240H131.862V232.276Z" fill="#9C0000"/>
<path d="M155.034 232.276H147.31V240H155.034V232.276Z" fill="#9C0000"/>
<path d="M162.759 232.276H155.034V240H162.759V232.276Z" fill="#9C0000"/>
<path d="M170.483 232.276H162.759V240H170.483V232.276Z" fill="#9C0000"/>
<path d="M185.931 232.276H178.207V240H185.931V232.276Z" fill="#9C0000"/>
<path d="M201.379 232.276H193.655V240H201.379V232.276Z" fill="#9C0000"/>
<path d="M216.828 232.276H209.103V240H216.828V232.276Z" fill="#9C0000"/>
<path d="M224.552 232.276H216.828V240H224.552V232.276Z" fill="#9C0000"/>
</svg>
