<svg width="256" height="256" viewBox="0 0 256 256" fill="none" xmlns="http://www.w3.org/2000/svg">
<path d="M23.7241 16H16V23.7241H23.7241V16Z" fill="#F6AE2D"/>
<path d="M31.4483 16H23.7241V23.7241H31.4483V16Z" fill="#F6AE2D"/>
<path d="M39.1724 16H31.4483V23.7241H39.1724V16Z" fill="#F6AE2D"/>
<path d="M46.8966 16H39.1724V23.7241H46.8966V16Z" fill="#F6AE2D"/>
<path d="M54.6207 16H46.8966V23.7241H54.6207V16Z" fill="#F6AE2D"/>
<path d="M62.3448 16H54.6207V23.7241H62.3448V16Z" fill="#F6AE2D"/>
<path d="M70.069 16H62.3448V23.7241H70.069V16Z" fill="#F6AE2D"/>
<path d="M85.5172 16H77.7931V23.7241H85.5172V16Z" fill="#F6AE2D"/>
<path d="M93.2414 16H85.5172V23.7241H93.2414V16Z" fill="#F6AE2D"/>
<path d="M100.966 16H93.2414V23.7241H100.966V16Z" fill="#F6AE2D"/>
<path d="M116.414 16H108.69V23.7241H116.414V16Z" fill="#F6AE2D"/>
<path d="M124.138 16H116.414V23.7241H124.138V16Z" fill="#F6AE2D"/>
<path d="M131.862 16H124.138V23.7241H131.862V16Z" fill="#F6AE2D"/>
<path d="M162.759 16H155.034V23.7241H162.759V16Z" fill="#F6AE2D"/>
<path d="M193.655 16H185.931V23.7241H193.655V16Z" fill="#F6AE2D"/>
<path d="M201.379 16H193.655V23.7241H201.379V16Z" fill="#F6AE2D"/>
<path d="M209.103 16H201.379V23.7241H209.103V16Z" fill="#F6AE2D"/>
<path d="M216.828 16H209.103V23.7241H216.828V16Z" fill="#F6AE2D"/>
<path d="M224.552 16H216.828V23.7241H224.552V16Z" fill="#F6AE2D"/>
<path d="M232.276 16H224.552V23.7241H232.276V16Z" fill="#F6AE2D"/>
<path d="M240 16H232.276V23.7241H240V16Z" fill="#F6AE2D"/>
<path d="M23.7241 23.7241H16V31.4483H23.7241V23.7241Z" fill="#F6AE2D"/>
<path d="M70.069 23.7241H62.3448V31.4483H70.069V23.7241Z" fill="#F6AE2D"/>
<path d="M93.2414 23.7241H85.5172V31.4483H93.2414V23.7241Z" fill="#F6AE2D"/>
<path d="M100.966 23.7241H93.2414V31.4483H100.966V23.7241Z" fill="#F6AE2D"/>
<path d="M108.69 23.7241H100.966V31.4483H108.69V23.7241Z" fill="#F6AE2D"/>
<path d="M139.586 23.7241H131.862V31.4483H139.586V23.7241Z" fill="#F6AE2D"/>
<path d="M155.034 23.7241H147.31V31.4483H155.034V23.7241Z" fill="#F6AE2D"/>
<path d="M178.207 23.7241H170.483V31.4483H178.207V23.7241Z" fill="#F6AE2D"/>
<path d="M193.655 23.7241H185.931V31.4483H193.655V23.7241Z" fill="#F6AE2D"/>
<path d="M240 23.7241H232.276V31.4483H240V23.7241Z" fill="#F6AE2D"/>
<path d="M23.7241 31.4483H16V39.1724H23.7241V31.4483Z" fill="#F6AE2D"/>
<path d="M39.1724 31.4483H31.4483V39.1724H39.1724V31.4483Z" fill="#F6AE2D"/>
<path d="M46.8966 31.4483H39.1724V39.1724H46.8966V31.4483Z" fill="#F6AE2D"/>
<path d="M54.6207 31.4483H46.8966V39.1724H54.6207V31.4483Z" fill="#F6AE2D"/>
<path d="M70.069 31.4483H62.3448V39.1724H70.069V31.4483Z" fill="#F6AE2D"/>
<path d="M85.5172 31.4483H77.7931V39.1724H85.5172V31.4483Z" fill="#F6AE2D"/>
<path d="M100.966 31.4483H93.2414V39.1724H100.966V31.4483Z" fill="#F6AE2D"/>
<path d="M116.414 31.4483H108.69V39.1724H116.414V31.4483Z" fill="#F6AE2D"/>
<path d="M124.138 31.4483H116.414V39.1724H124.138V31.4483Z" fill="#F6AE2D"/>
<path d="M155.034 31.4483H147.31V39.1724H155.034V31.4483Z" fill="#F6AE2D"/>
<path d="M193.655 31.4483H185.931V39.1724H193.655V31.4483Z" fill="#F6AE2D"/>
<path d="M209.103 31.4483H201.379V39.1724H209.103V31.4483Z" fill="#F6AE2D"/>
<path d="M216.828 31.4483H209.103V39.1724H216.828V31.4483Z" fill="#F6AE2D"/>
<path d="M224.552 31.4483H216.828V39.1724H224.552V31.4483Z" fill="#F6AE2D"/>
<path d="M240 31.4483H232.276V39.1724H240V31.4483Z" fill="#F6AE2D"/>
<path d="M23.7241 39.1724H16V46.8966H23.7241V39.1724Z" fill="#F6AE2D"/>
<path d="M39.1724 39.1724H31.4483V46.8966H39.1724V39.1724Z" fill="#F6AE2D"/>
<path d="M46.8966 39.1724H39.1724V46.8966H46.8966V39.1724Z" fill="#F6AE2D"/>
<path d="M54.6207 39.1724H46.8966V46.8966H54.6207V39.1724Z" fill="#F6AE2D"/>
<path d="M70.069 39.1724H62.3448V46.8966H70.069V39.1724Z" fill="#F6AE2D"/>
<path d="M85.5172 39.1724H77.7931V46.8966H85.5172V39.1724Z" fill="#F6AE2D"/>
<path d="M108.69 39.1724H100.966V46.8966H108.69V39.1724Z" fill="#F6AE2D"/>
<path d="M116.414 39.1724H108.69V46.8966H116.414V39.1724Z" fill="#F6AE2D"/>
<path d="M155.034 39.1724H147.31V46.8966H155.034V39.1724Z" fill="#F6AE2D"/>
<path d="M162.759 39.1724H155.034V46.8966H162.759V39.1724Z" fill="#F6AE2D"/>
<path d="M170.483 39.1724H162.759V46.8966H170.483V39.1724Z" fill="#F6AE2D"/>
<path d="M178.207 39.1724H170.483V46.8966H178.207V39.1724Z" fill="#F6AE2D"/>
<path d="M193.655 39.1724H185.931V46.8966H193.655V39.1724Z" fill="#F6AE2D"/>
<path d="M209.103 39.1724H201.379V46.8966H209.103V39.1724Z" fill="#F6AE2D"/>
<path d="M216.828 39.1724H209.103V46.8966H216.828V39.1724Z" fill="#F6AE2D"/>
<path d="M224.552 39.1724H216.828V46.8966H224.552V39.1724Z" fill="#F6AE2D"/>
<path d="M240 39.1724H232.276V46.8966H240V39.1724Z" fill="#F6AE2D"/>
<path d="M23.7241 46.8966H16V54.6207H23.7241V46.8966Z" fill="#F6AE2D"/>
<path d="M39.1724 46.8966H31.4483V54.6207H39.1724V46.8966Z" fill="#F6AE2D"/>
<path d="M46.8966 46.8966H39.1724V54.6207H46.8966V46.8966Z" fill="#F6AE2D"/>
<path d="M54.6207 46.8966H46.8966V54.6207H54.6207V46.8966Z" fill="#F6AE2D"/>
<path d="M70.069 46.8966H62.3448V54.6207H70.069V46.8966Z" fill="#F6AE2D"/>
<path d="M100.966 46.8966H93.2414V54.6207H100.966V46.8966Z" fill="#F6AE2D"/>
<path d="M124.138 46.8966H116.414V54.6207H124.138V46.8966Z" fill="#F6AE2D"/>
<path d="M131.862 46.8966H124.138V54.6207H131.862V46.8966Z" fill="#F6AE2D"/>
<path d="M193.655 46.8966H185.931V54.6207H193.655V46.8966Z" fill="#F6AE2D"/>
<path d="M209.103 46.8966H201.379V54.6207H209.103V46.8966Z" fill="#F6AE2D"/>
<path d="M216.828 46.8966H209.103V54.6207H216.828V46.8966Z" fill="#F6AE2D"/>
<path d="M224.552 46.8966H216.828V54.6207H224.552V46.8966Z" fill="#F6AE2D"/>
<path d="M240 46.8966H232.276V54.6207H240V46.8966Z" fill="#F6AE2D"/>
<path d="M23.7241 54.6207H16V62.3448H23.7241V54.6207Z" fill="#F6AE2D"/>
<path d="M70.069 54.6207H62.3448V62.3448H70.069V54.6207Z" fill="#F6AE2D"/>
<path d="M85.5172 54.6207H77.7931V62.3448H85.5172V54.6207Z" fill="#F6AE2D"/>
<path d="M93.2414 54.6207H85.5172V62.3448H93.2414V54.6207Z" fill="#F6AE2D"/>
<path d="M131.862 54.6207H124.138V62.3448H131.862V54.6207Z" fill="#F6AE2D"/>
<path d="M139.586 54.6207H131.862V62.3448H139.586V54.6207Z" fill="#F6AE2D"/>
<path d="M155.034 54.6207H147.31V62.3448H155.034V54.6207Z" fill="#F6AE2D"/>
<path d="M162.759 54.6207H155.034V62.3448H162.759V54.6207Z" fill="#F6AE2D"/>
<path d="M170.483 54.6207H162.759V62.3448H170.483V54.6207Z" fill="#F6AE2D"/>
<path d="M193.655 54.6207H185.931V62.3448H193.655V54.6207Z" fill="#F6AE2D"/>
<path d="M240 54.6207H232.276V62.3448H240V54.6207Z" fill="#F6AE2D"/>
<path d="M23.7241 62.3448H16V70.069H23.7241V62.3448Z" fill="#F6AE2D"/>
<path d="M31.4483 62.3448H23.7241V70.069H31.4483V62.3448Z" fill="#F6AE2D"/>
<path d="M39.1724 62.3448H31.4483V70.069H39.1724V62.3448Z" fill="#F6AE2D"/>
<path d="M46.8966 62.3448H39.1724V70.069H46.8966V62.3448Z" fill="#F6AE2D"/>
<path d="M54.6207 62.3448H46.8966V70.069H54.6207V62.3448Z" fill="#F6AE2D"/>
<path d="M62.3448 62.3448H54.6207V70.069H62.3448V62.3448Z" fill="#F6AE2D"/>
<path d="M70.069 62.3448H62.3448V70.069H70.069V62.3448Z" fill="#F6AE2D"/>
<path d="M85.5172 62.3448H77.7931V70.069H85.5172V62.3448Z" fill="#F6AE2D"/>
<path d="M100.966 62.3448H93.2414V70.069H100.966V62.3448Z" fill="#F6AE2D"/>
<path d="M116.414 62.3448H108.69V70.069H116.414V62.3448Z" fill="#F6AE2D"/>
<path d="M131.862 62.3448H124.138V70.069H131.862V62.3448Z" fill="#F6AE2D"/>
<path d="M147.31 62.3448H139.586V70.069H147.31V62.3448Z" fill="#F6AE2D"/>
<path d="M162.759 62.3448H155.034V70.069H162.759V62.3448Z" fill="#F6AE2D"/>
<path d="M178.207 62.3448H170.483V70.069H178.207V62.3448Z" fill="#F6AE2D"/>
<path d="M193.655 62.3448H185.931V70.069H193.655V62.3448Z" fill="#F6AE2D"/>
<path d="M201.379 62.3448H193.655V70.069H201.379V62.3448Z" fill="#F6AE2D"/>
<path d="M209.103 62.3448H201.379V70.069H209.103V62.3448Z" fill="#F6AE2D"/>
<path d="M216.828 62.3448H209.103V70.069H216.828V62.3448Z" fill="#F6AE2D"/>
<path d="M224.552 62.3448H216.828V70.069H224.552V62.3448Z" fill="#F6AE2D"/>
<path d="M232.276 62.3448H224.552V70.069H232.276V62.3448Z" fill="#F6AE2D"/>
<path d="M240 62.3448H232.276V70.069H240V62.3448Z" fill="#F6AE2D"/>
<path d="M85.5172 70.069H77.7931V77.7931H85.5172V70.069Z" fill="#F6AE2D"/>
<path d="M100.966 70.069H93.2414V77.7931H100.966V70.069Z" fill="#F6AE2D"/>
<path d="M116.414 70.069H108.69V77.7931H116.414V70.069Z" fill="#F6AE2D"/>
<path d="M124.138 70.069H116.414V77.7931H124.138V70.069Z" fill="#F6AE2D"/>
<path d="M139.586 70.069H131.862V77.7931H139.586V70.069Z" fill="#F6AE2D"/>
<path d="M155.034 70.069H147.31V77.7931H155.034V70.069Z" fill="#F6AE2D"/>
<path d="M23.7241 77.7931H16V85.5172H23.7241V77.7931Z" fill="#F6AE2D"/>
<path d="M31.4483 77.7931H23.7241V85.5172H31.4483V77.7931Z" fill="#F6AE2D"/>
<path d="M46.8966 77.7931H39.1724V85.5172H46.8966V77.7931Z" fill="#F6AE2D"/>
<path d="M70.069 77.7931H62.3448V85.5172H70.069V77.7931Z" fill="#F6AE2D"/>
<path d="M77.7931 77.7931H70.069V85.5172H77.7931V77.7931Z" fill="#F6AE2D"/>
<path d="M93.2414 77.7931H85.5172V85.5172H93.2414V77.7931Z" fill="#F6AE2D"/>
<path d="M108.69 77.7931H100.966V85.5172H108.69V77.7931Z" fill="#F6AE2D"/>
<path d="M116.414 77.7931H108.69V85.5172H116.414V77.7931Z" fill="#F6AE2D"/>
<path d="M131.862 77.7931H124.138V85.5172H131.862V77.7931Z" fill="#F6AE2D"/>
<path d="M139.586 77.7931H131.862V85.5172H139.586V77.7931Z" fill="#F6AE2D"/>
<path d="M147.31 77.7931H139.586V85.5172H147.31V77.7931Z" fill="#F6AE2D"/>
<path d="M155.034 77.7931H147.31V85.5172H155.034V77.7931Z" fill="#F6AE2D"/>
<path d="M170.483 77.7931H162.759V85.5172H170.483V77.7931Z" fill="#F6AE2D"/>
<path d="M185.931 77.7931H178.207V85.5172H185.931V77.7931Z" fill="#F6AE2D"/>
<path d="M193.655 77.7931H185.931V85.5172H193.655V77.7931Z" fill="#F6AE2D"/>
<path d="M201.379 77.7931H193.655V85.5172H201.379V77.7931Z" fill="#F6AE2D"/>
<path d="M216.828 77.7931H209.103V85.5172H216.828V77.7931Z" fill="#F6AE2D"/>
<path d="M224.552 77.7931H216.828V85.5172H224.552V77.7931Z" fill="#F6AE2D"/>
<path d="M240 77.7931H232.276V85.5172H240V77.7931Z" fill="#F6AE2D"/>
<path d="M31.4483 85.5172H23.7241V93.2414H31.4483V85.5172Z" fill="#F6AE2D"/>
<path d="M39.1724 85.5172H31.4483V93.2414H39.1724V85.5172Z" fill="#F6AE2D"/>
<path d="M62.3448 85.5172H54.6207V93.2414H62.3448V85.5172Z" fill="#F6AE2D"/>
<path d="M77.7931 85.5172H70.069V93.2414H77.7931V85.5172Z" fill="#F6AE2D"/>
<path d="M85.5172 85.5172H77.7931V93.2414H85.5172V85.5172Z" fill="#F6AE2D"/>
<path d="M100.966 85.5172H93.2414V93.2414H100.966V85.5172Z" fill="#F6AE2D"/>
<path d="M116.414 85.5172H108.69V93.2414H116.414V85.5172Z" fill="#F6AE2D"/>
<path d="M131.862 85.5172H124.138V93.2414H131.862V85.5172Z" fill="#F6AE2D"/>
<path d="M147.31 85.5172H139.586V93.2414H147.31V85.5172Z" fill="#F6AE2D"/>
<path d="M162.759 85.5172H155.034V93.2414H162.759V85.5172Z" fill="#F6AE2D"/>
<path d="M178.207 85.5172H170.483V93.2414H178.207V85.5172Z" fill="#F6AE2D"/>
<path d="M185.931 85.5172H178.207V93.2414H185.931V85.5172Z" fill="#F6AE2D"/>
<path d="M193.655 85.5172H185.931V93.2414H193.655V85.5172Z" fill="#F6AE2D"/>
<path d="M201.379 85.5172H193.655V93.2414H201.379V85.5172Z" fill="#F6AE2D"/>
<path d="M209.103 85.5172H201.379V93.2414H209.103V85.5172Z" fill="#F6AE2D"/>
<path d="M216.828 85.5172H209.103V93.2414H216.828V85.5172Z" fill="#F6AE2D"/>
<path d="M224.552 85.5172H216.828V93.2414H224.552V85.5172Z" fill="#F6AE2D"/>
<path d="M232.276 85.5172H224.552V93.2414H232.276V85.5172Z" fill="#F6AE2D"/>
<path d="M240 85.5172H232.276V93.2414H240V85.5172Z" fill="#F6AE2D"/>
<path d="M23.7241 93.2414H16V100.966H23.7241V93.2414Z" fill="#F6AE2D"/>
<path d="M31.4483 93.2414H23.7241V100.966H31.4483V93.2414Z" fill="#F6AE2D"/>
<path d="M39.1724 93.2414H31.4483V100.966H39.1724V93.2414Z" fill="#F6AE2D"/>
<path d="M46.8966 93.2414H39.1724V100.966H46.8966V93.2414Z" fill="#F6AE2D"/>
<path d="M54.6207 93.2414H46.8966V100.966H54.6207V93.2414Z" fill="#F6AE2D"/>
<path d="M62.3448 93.2414H54.6207V100.966H62.3448V93.2414Z" fill="#F6AE2D"/>
<path d="M70.069 93.2414H62.3448V100.966H70.069V93.2414Z" fill="#F6AE2D"/>
<path d="M77.7931 93.2414H70.069V100.966H77.7931V93.2414Z" fill="#F6AE2D"/>
<path d="M93.2414 93.2414H85.5172V100.966H93.2414V93.2414Z" fill="#F6AE2D"/>
<path d="M108.69 93.2414H100.966V100.966H108.69V93.2414Z" fill="#F6AE2D"/>
<path d="M116.414 93.2414H108.69V100.966H116.414V93.2414Z" fill="#F6AE2D"/>
<path d="M131.862 93.2414H124.138V100.966H131.862V93.2414Z" fill="#F6AE2D"/>
<path d="M139.586 93.2414H131.862V100.966H139.586V93.2414Z" fill="#F6AE2D"/>
<path d="M147.31 93.2414H139.586V100.966H147.31V93.2414Z" fill="#F6AE2D"/>
<path d="M170.483 93.2414H162.759V100.966H170.483V93.2414Z" fill="#F6AE2D"/>
<path d="M185.931 93.2414H178.207V100.966H185.931V93.2414Z" fill="#F6AE2D"/>
<path d="M193.655 93.2414H185.931V100.966H193.655V93.2414Z" fill="#F6AE2D"/>
<path d="M201.379 93.2414H193.655V100.966H201.379V93.2414Z" fill="#F6AE2D"/>
<path d="M216.828 93.2414H209.103V100.966H216.828V93.2414Z" fill="#F6AE2D"/>
<path d="M31.4483 100.966H23.7241V108.69H31.4483V100.966Z" fill="#F6AE2D"/>
<path d="M62.3448 100.966H54.6207V108.69H62.3448V100.966Z" fill="#F6AE2D"/>
<path d="M93.2414 100.966H85.5172V108.69H93.2414V100.966Z" fill="#F6AE2D"/>
<path d="M100.966 100.966H93.2414V108.69H100.966V100.966Z" fill="#F6AE2D"/>
<path d="M139.586 100.966H131.862V108.69H139.586V100.966Z" fill="#F6AE2D"/>
<path d="M155.034 100.966H147.31V108.69H155.034V100.966Z" fill="#F6AE2D"/>
<path d="M170.483 100.966H162.759V108.69H170.483V100.966Z" fill="#F6AE2D"/>
<path d="M185.931 100.966H178.207V108.69H185.931V100.966Z" fill="#F6AE2D"/>
<path d="M193.655 100.966H185.931V108.69H193.655V100.966Z" fill="#F6AE2D"/>
<path d="M201.379 100.966H193.655V108.69H201.379V100.966Z" fill="#F6AE2D"/>
<path d="M209.103 100.966H201.379V108.69H209.103V100.966Z" fill="#F6AE2D"/>
<path d="M224.552 100.966H216.828V108.69H224.552V100.966Z" fill="#F6AE2D"/>
<path d="M31.4483 108.69H23.7241V116.414H31.4483V108.69Z" fill="#F6AE2D"/>
<path d="M46.8966 108.69H39.1724V116.414H46.8966V108.69Z" fill="#F6AE2D"/>
<path d="M54.6207 108.69H46.8966V116.414H54.6207V108.69Z" fill="#F6AE2D"/>
<path d="M70.069 108.69H62.3448V116.414H70.069V108.69Z" fill="#F6AE2D"/>
<path d="M93.2414 108.69H85.5172V116.414H93.2414V108.69Z" fill="#F6AE2D"/>
<path d="M124.138 108.69H116.414V116.414H124.138V108.69Z" fill="#F6AE2D"/>
<path d="M139.586 108.69H131.862V116.414H139.586V108.69Z" fill="#F6AE2D"/>
<path d="M147.31 108.69H139.586V116.414H147.31V108.69Z" fill="#F6AE2D"/>
<path d="M155.034 108.69H147.31V116.414H155.034V108.69Z" fill="#F6AE2D"/>
<path d="M170.483 108.69H162.759V116.414H170.483V108.69Z" fill="#F6AE2D"/>
<path d="M178.207 108.69H170.483V116.414H178.207V108.69Z" fill="#F6AE2D"/>
<path d="M224.552 108.69H216.828V116.414H224.552V108.69Z" fill="#F6AE2D"/>
<path d="M232.276 108.69H224.552V116.414H232.276V108.69Z" fill="#F6AE2D"/>
<path d="M39.1724 116.414H31.4483V124.138H39.1724V116.414Z" fill="#F6AE2D"/>
<path d="M54.6207 116.414H46.8966V124.138H54.6207V116.414Z" fill="#F6AE2D"/>
<path d="M77.7931 116.414H70.069V124.138H77.7931V116.414Z" fill="#F6AE2D"/>
<path d="M85.5172 116.414H77.7931V124.138H85.5172V116.414Z" fill="#F6AE2D"/>
<path d="M108.69 116.414H100.966V124.138H108.69V116.414Z" fill="#F6AE2D"/>
<path d="M124.138 116.414H116.414V124.138H124.138V116.414Z" fill="#F6AE2D"/>
<path d="M139.586 116.414H131.862V124.138H139.586V116.414Z" fill="#F6AE2D"/>
<path d="M155.034 116.414H147.31V124.138H155.034V116.414Z" fill="#F6AE2D"/>
<path d="M178.207 116.414H170.483V124.138H178.207V116.414Z" fill="#F6AE2D"/>
<path d="M185.931 116.414H178.207V124.138H185.931V116.414Z" fill="#F6AE2D"/>
<path d="M193.655 116.414H185.931V124.138H193.655V116.414Z" fill="#F6AE2D"/>
<path d="M240 116.414H232.276V124.138H240V116.414Z" fill="#F6AE2D"/>
<path d="M31.4483 124.138H23.7241V131.862H31.4483V124.138Z" fill="#F6AE2D"/>
<path d="M39.1724 124.138H31.4483V131.862H39.1724V124.138Z" fill="#F6AE2D"/>
<path d="M62.3448 124.138H54.6207V131.862H62.3448V124.138Z" fill="#F6AE2D"/>
<path d="M70.069 124.138H62.3448V131.862H70.069V124.138Z" fill="#F6AE2D"/>
<path d="M77.7931 124.138H70.069V131.862H77.7931V124.138Z" fill="#F6AE2D"/>
<path d="M85.5172 124.138H77.7931V131.862H85.5172V124.138Z" fill="#F6AE2D"/>
<path d="M100.966 124.138H93.2414V131.862H100.966V124.138Z" fill="#F6AE2D"/>
<path d="M108.69 124.138H100.966V131.862H108.69V124.138Z" fill="#F6AE2D"/>
<path d="M131.862 124.138H124.138V131.862H131.862V124.138Z" fill="#F6AE2D"/>
<path d="M185.931 124.138H178.207V131.862H185.931V124.138Z" fill="#F6AE2D"/>
<path d="M209.103 124.138H201.379V131.862H209.103V124.138Z" fill="#F6AE2D"/>
<path d="M216.828 124.138H209.103V131.862H216.828V124.138Z" fill="#F6AE2D"/>
<path d="M232.276 124.138H224.552V131.862H232.276V124.138Z" fill="#F6AE2D"/>
<path d="M240 124.138H232.276V131.862H240V124.138Z" fill="#F6AE2D"/>
<path d="M23.7241 131.862H16V139.586H23.7241V131.862Z" fill="#F6AE2D"/>
<path d="M31.4483 131.862H23.7241V139.586H31.4483V131.862Z" fill="#F6AE2D"/>
<path d="M39.1724 131.862H31.4483V139.586H39.1724V131.862Z" fill="#F6AE2D"/>
<path d="M93.2414 131.862H85.5172V139.586H93.2414V131.862Z" fill="#F6AE2D"/>
<path d="M100.966 131.862H93.2414V139.586H100.966V131.862Z" fill="#F6AE2D"/>
<path d="M108.69 131.862H100.966V139.586H108.69V131.862Z" fill="#F6AE2D"/>
<path d="M139.586 131.862H131.862V139.586H139.586V131.862Z" fill="#F6AE2D"/>
<path d="M170.483 131.862H162.759V139.586H170.483V131.862Z" fill="#F6AE2D"/>
<path d="M178.207 131.862H170.483V139.586H178.207V131.862Z" fill="#F6AE2D"/>
<path d="M185.931 131.862H178.207V139.586H185.931V131.862Z" fill="#F6AE2D"/>
<path d="M209.103 131.862H201.379V139.586H209.103V131.862Z" fill="#F6AE2D"/>
<path d="M216.828 131.862H209.103V139.586H216.828V131.862Z" fill="#F6AE2D"/>
<path d="M240 131.862H232.276V139.586H240V131.862Z" fill="#F6AE2D"/>
<path d="M23.7241 139.586H16V147.31H23.7241V139.586Z" fill="#F6AE2D"/>
<path d="M46.8966 139.586H39.1724V147.31H46.8966V139.586Z" fill="#F6AE2D"/>
<path d="M70.069 139.586H62.3448V147.31H70.069V139.586Z" fill="#F6AE2D"/>
<path d="M85.5172 139.586H77.7931V147.31H85.5172V139.586Z" fill="#F6AE2D"/>
<path d="M93.2414 139.586H85.5172V147.31H93.2414V139.586Z" fill="#F6AE2D"/>
<path d="M116.414 139.586H108.69V147.31H116.414V139.586Z" fill="#F6AE2D"/>
<path d="M170.483 139.586H162.759V147.31H170.483V139.586Z" fill="#F6AE2D"/>
<path d="M178.207 139.586H170.483V147.31H178.207V139.586Z" fill="#F6AE2D"/>
<path d="M209.103 139.586H201.379V147.31H209.103V139.586Z" fill="#F6AE2D"/>
<path d="M232.276 139.586H224.552V147.31H232.276V139.586Z" fill="#F6AE2D"/>
<path d="M23.7241 147.31H16V155.034H23.7241V147.31Z" fill="#F6AE2D"/>
<path d="M46.8966 147.31H39.1724V155.034H46.8966V147.31Z" fill="#F6AE2D"/>
<path d="M77.7931 147.31H70.069V155.034H77.7931V147.31Z" fill="#F6AE2D"/>
<path d="M85.5172 147.31H77.7931V155.034H85.5172V147.31Z" fill="#F6AE2D"/>
<path d="M93.2414 147.31H85.5172V155.034H93.2414V147.31Z" fill="#F6AE2D"/>
<path d="M116.414 147.31H108.69V155.034H116.414V147.31Z" fill="#F6AE2D"/>
<path d="M124.138 147.31H116.414V155.034H124.138V147.31Z" fill="#F6AE2D"/>
<path d="M131.862 147.31H124.138V155.034H131.862V147.31Z" fill="#F6AE2D"/>
<path d="M162.759 147.31H155.034V155.034H162.759V147.31Z" fill="#F6AE2D"/>
<path d="M170.483 147.31H162.759V155.034H170.483V147.31Z" fill="#F6AE2D"/>
<path d="M178.207 147.31H170.483V155.034H178.207V147.31Z" fill="#F6AE2D"/>
<path d="M193.655 147.31H185.931V155.034H193.655V147.31Z" fill="#F6AE2D"/>
<path d="M209.103 147.31H201.379V155.034H209.103V147.31Z" fill="#F6AE2D"/>
<path d="M224.552 147.31H216.828V155.034H224.552V147.31Z" fill="#F6AE2D"/>
<path d="M23.7241 155.034H16V162.759H23.7241V155.034Z" fill="#F6AE2D"/>
<path d="M31.4483 155.034H23.7241V162.759H31.4483V155.034Z" fill="#F6AE2D"/>
<path d="M39.1724 155.034H31.4483V162.759H39.1724V155.034Z" fill="#F6AE2D"/>
<path d="M62.3448 155.034H54.6207V162.759H62.3448V155.034Z" fill="#F6AE2D"/>
<path d="M70.069 155.034H62.3448V162.759H70.069V155.034Z" fill="#F6AE2D"/>
<path d="M77.7931 155.034H70.069V162.759H77.7931V155.034Z" fill="#F6AE2D"/>
<path d="M93.2414 155.034H85.5172V162.759H93.2414V155.034Z" fill="#F6AE2D"/>
<path d="M100.966 155.034H93.2414V162.759H100.966V155.034Z" fill="#F6AE2D"/>
<path d="M108.69 155.034H100.966V162.759H108.69V155.034Z" fill="#F6AE2D"/>
<path d="M124.138 155.034H116.414V162.759H124.138V155.034Z" fill="#F6AE2D"/>
<path d="M147.31 155.034H139.586V162.759H147.31V155.034Z" fill="#F6AE2D"/>
<path d="M162.759 155.034H155.034V162.759H162.759V155.034Z" fill="#F6AE2D"/>
<path d="M170.483 155.034H162.759V162.759H170.483V155.034Z" fill="#F6AE2D"/>
<path d="M178.207 155.034H170.483V162.759H178.207V155.034Z" fill="#F6AE2D"/>
<path d="M185.931 155.034H178.207V162.759H185.931V155.034Z" fill="#F6AE2D"/>
<path d="M201.379 155.034H193.655V162.759H201.379V155.034Z" fill="#F6AE2D"/>
<path d="M224.552 155.034H216.828V162.759H224.552V155.034Z" fill="#F6AE2D"/>
<path d="M232.276 155.034H224.552V162.759H232.276V155.034Z" fill="#F6AE2D"/>
<path d="M23.7241 162.759H16V170.483H23.7241V162.759Z" fill="#F6AE2D"/>
<path d="M54.6207 162.759H46.8966V170.483H54.6207V162.759Z" fill="#F6AE2D"/>
<path d="M62.3448 162.759H54.6207V170.483H62.3448V162.759Z" fill="#F6AE2D"/>
<path d="M77.7931 162.759H70.069V170.483H77.7931V162.759Z" fill="#F6AE2D"/>
<path d="M93.2414 162.759H85.5172V170.483H93.2414V162.759Z" fill="#F6AE2D"/>
<path d="M108.69 162.759H100.966V170.483H108.69V162.759Z" fill="#F6AE2D"/>
<path d="M116.414 162.759H108.69V170.483H116.414V162.759Z" fill="#F6AE2D"/>
<path d="M124.138 162.759H116.414V170.483H124.138V162.759Z" fill="#F6AE2D"/>
<path d="M131.862 162.759H124.138V170.483H131.862V162.759Z" fill="#F6AE2D"/>
<path d="M193.655 162.759H185.931V170.483H193.655V162.759Z" fill="#F6AE2D"/>
<path d="M240 162.759H232.276V170.483H240V162.759Z" fill="#F6AE2D"/>
<path d="M23.7241 170.483H16V178.207H23.7241V170.483Z" fill="#F6AE2D"/>
<path d="M70.069 170.483H62.3448V178.207H70.069V170.483Z" fill="#F6AE2D"/>
<path d="M116.414 170.483H108.69V178.207H116.414V170.483Z" fill="#F6AE2D"/>
<path d="M131.862 170.483H124.138V178.207H131.862V170.483Z" fill="#F6AE2D"/>
<path d="M139.586 170.483H131.862V178.207H139.586V170.483Z" fill="#F6AE2D"/>
<path d="M147.31 170.483H139.586V178.207H147.31V170.483Z" fill="#F6AE2D"/>
<path d="M155.034 170.483H147.31V178.207H155.034V170.483Z" fill="#F6AE2D"/>
<path d="M178.207 170.483H170.483V178.207H178.207V170.483Z" fill="#F6AE2D"/>
<path d="M185.931 170.483H178.207V178.207H185.931V170.483Z" fill="#F6AE2D"/>
<path d="M193.655 170.483H185.931V178.207H193.655V170.483Z" fill="#F6AE2D"/>
<path d="M201.379 170.483H193.655V178.207H201.379V170.483Z" fill="#F6AE2D"/>
<path d="M209.103 170.483H201.379V178.207H209.103V170.483Z" fill="#F6AE2D"/>
<path d="M224.552 170.483H216.828V178.207H224.552V170.483Z" fill="#F6AE2D"/>
<path d="M232.276 170.483H224.552V178.207H232.276V170.483Z" fill="#F6AE2D"/>
<path d="M240 170.483H232.276V178.207H240V170.483Z" fill="#F6AE2D"/>
<path d="M93.2414 178.207H85.5172V185.931H93.2414V178.207Z" fill="#F6AE2D"/>
<path d="M108.69 178.207H100.966V185.931H108.69V178.207Z" fill="#F6AE2D"/>
<path d="M131.862 178.207H124.138V185.931H131.862V178.207Z" fill="#F6AE2D"/>
<path d="M139.586 178.207H131.862V185.931H139.586V178.207Z" fill="#F6AE2D"/>
<path d="M147.31 178.207H139.586V185.931H147.31V178.207Z" fill="#F6AE2D"/>
<path d="M178.207 178.207H170.483V185.931H178.207V178.207Z" fill="#F6AE2D"/>
<path d="M209.103 178.207H201.379V185.931H209.103V178.207Z" fill="#F6AE2D"/>
<path d="M216.828 178.207H209.103V185.931H216.828V178.207Z" fill="#F6AE2D"/>
<path d="M240 178.207H232.276V185.931H240V178.207Z" fill="#F6AE2D"/>
<path d="M23.7241 185.931H16V193.655H23.7241V185.931Z" fill="#F6AE2D"/>
<path d="M31.4483 185.931H23.7241V193.655H31.4483V185.931Z" fill="#F6AE2D"/>
<path d="M39.1724 185.931H31.4483V193.655H39.1724V185.931Z" fill="#F6AE2D"/>
<path d="M46.8966 185.931H39.1724V193.655H46.8966V185.931Z" fill="#F6AE2D"/>
<path d="M54.6207 185.931H46.8966V193.655H54.6207V185.931Z" fill="#F6AE2D"/>
<path d="M62.3448 185.931H54.6207V193.655H62.3448V185.931Z" fill="#F6AE2D"/>
<path d="M70.069 185.931H62.3448V193.655H70.069V185.931Z" fill="#F6AE2D"/>
<path d="M85.5172 185.931H77.7931V193.655H85.5172V185.931Z" fill="#F6AE2D"/>
<path d="M93.2414 185.931H85.5172V193.655H93.2414V185.931Z" fill="#F6AE2D"/>
<path d="M108.69 185.931H100.966V193.655H108.69V185.931Z" fill="#F6AE2D"/>
<path d="M124.138 185.931H116.414V193.655H124.138V185.931Z" fill="#F6AE2D"/>
<path d="M139.586 185.931H131.862V193.655H139.586V185.931Z" fill="#F6AE2D"/>
<path d="M178.207 185.931H170.483V193.655H178.207V185.931Z" fill="#F6AE2D"/>
<path d="M193.655 185.931H185.931V193.655H193.655V185.931Z" fill="#F6AE2D"/>
<path d="M209.103 185.931H201.379V193.655H209.103V185.931Z" fill="#F6AE2D"/>
<path d="M232.276 185.931H224.552V193.655H232.276V185.931Z" fill="#F6AE2D"/>
<path d="M240 185.931H232.276V193.655H240V185.931Z" fill="#F6AE2D"/>
<path d="M23.7241 193.655H16V201.379H23.7241V193.655Z" fill="#F6AE2D"/>
<path d="M70.069 193.655H62.3448V201.379H70.069V193.655Z" fill="#F6AE2D"/>
<path d="M93.2414 193.655H85.5172V201.379H93.2414V193.655Z" fill="#F6AE2D"/>
<path d="M108.69 193.655H100.966V201.379H108.69V193.655Z" fill="#F6AE2D"/>
<path d="M131.862 193.655H124.138V201.379H131.862V193.655Z" fill="#F6AE2D"/>
<path d="M139.586 193.655H131.862V201.379H139.586V193.655Z" fill="#F6AE2D"/>
<path d="M147.31 193.655H139.586V201.379H147.31V193.655Z" fill="#F6AE2D"/>
<path d="M155.034 193.655H147.31V201.379H155.034V193.655Z" fill="#F6AE2D"/>
<path d="M162.759 193.655H155.034V201.379H162.759V193.655Z" fill="#F6AE2D"/>
<path d="M178.207 193.655H170.483V201.379H178.207V193.655Z" fill="#F6AE2D"/>
<path d="M209.103 193.655H201.379V201.379H209.103V193.655Z" fill="#F6AE2D"/>
<path d="M216.828 193.655H209.103V201.379H216.828V193.655Z" fill="#F6AE2D"/>
<path d="M224.552 193.655H216.828V201.379H224.552V193.655Z" fill="#F6AE2D"/>
<path d="M232.276 193.655H224.552V201.379H232.276V193.655Z" fill="#F6AE2D"/>
<path d="M240 193.655H232.276V201.379H240V193.655Z" fill="#F6AE2D"/>
<path d="M23.7241 201.379H16V209.103H23.7241V201.379Z" fill="#F6AE2D"/>
<path d="M39.1724 201.379H31.4483V209.103H39.1724V201.379Z" fill="#F6AE2D"/>
<path d="M46.8966 201.379H39.1724V209.103H46.8966V201.379Z" fill="#F6AE2D"/>
<path d="M54.6207 201.379H46.8966V209.103H54.6207V201.379Z" fill="#F6AE2D"/>
<path d="M70.069 201.379H62.3448V209.103H70.069V201.379Z" fill="#F6AE2D"/>
<path d="M93.2414 201.379H85.5172V209.103H93.2414V201.379Z" fill="#F6AE2D"/>
<path d="M100.966 201.379H93.2414V209.103H100.966V201.379Z" fill="#F6AE2D"/>
<path d="M139.586 201.379H131.862V209.103H139.586V201.379Z" fill="#F6AE2D"/>
<path d="M147.31 201.379H139.586V209.103H147.31V201.379Z" fill="#F6AE2D"/>
<path d="M162.759 201.379H155.034V209.103H162.759V201.379Z" fill="#F6AE2D"/>
<path d="M178.207 201.379H170.483V209.103H178.207V201.379Z" fill="#F6AE2D"/>
<path d="M185.931 201.379H178.207V209.103H185.931V201.379Z" fill="#F6AE2D"/>
<path d="M193.655 201.379H185.931V209.103H193.655V201.379Z" fill="#F6AE2D"/>
<path d="M201.379 201.379H193.655V209.103H201.379V201.379Z" fill="#F6AE2D"/>
<path d="M209.103 201.379H201.379V209.103H209.103V201.379Z" fill="#F6AE2D"/>
<path d="M216.828 201.379H209.103V209.103H216.828V201.379Z" fill="#F6AE2D"/>
<path d="M240 201.379H232.276V209.103H240V201.379Z" fill="#F6AE2D"/>
<path d="M23.7241 209.103H16V216.828H23.7241V209.103Z" fill="#F6AE2D"/>
<path d="M39.1724 209.103H31.4483V216.828H39.1724V209.103Z" fill="#F6AE2D"/>
<path d="M46.8966 209.103H39.1724V216.828H46.8966V209.103Z" fill="#F6AE2D"/>
<path d="M54.6207 209.103H46.8966V216.828H54.6207V209.103Z" fill="#F6AE2D"/>
<path d="M70.069 209.103H62.3448V216.828H70.069V209.103Z" fill="#F6AE2D"/>
<path d="M85.5172 209.103H77.7931V216.828H85.5172V209.103Z" fill="#F6AE2D"/>
<path d="M116.414 209.103H108.69V216.828H116.414V209.103Z" fill="#F6AE2D"/>
<path d="M147.31 209.103H139.586V216.828H147.31V209.103Z" fill="#F6AE2D"/>
<path d="M155.034 209.103H147.31V216.828H155.034V209.103Z" fill="#F6AE2D"/>
<path d="M178.207 209.103H170.483V216.828H178.207V209.103Z" fill="#F6AE2D"/>
<path d="M185.931 209.103H178.207V216.828H185.931V209.103Z" fill="#F6AE2D"/>
<path d="M193.655 209.103H185.931V216.828H193.655V209.103Z" fill="#F6AE2D"/>
<path d="M201.379 209.103H193.655V216.828H201.379V209.103Z" fill="#F6AE2D"/>
<path d="M216.828 209.103H209.103V216.828H216.828V209.103Z" fill="#F6AE2D"/>
<path d="M232.276 209.103H224.552V216.828H232.276V209.103Z" fill="#F6AE2D"/>
<path d="M23.7241 216.828H16V224.552H23.7241V216.828Z" fill="#F6AE2D"/>
<path d="M39.1724 216.828H31.4483V224.552H39.1724V216.828Z" fill="#F6AE2D"/>
<path d="M46.8966 216.828H39.1724V224.552H46.8966V216.828Z" fill="#F6AE2D"/>
<path d="M54.6207 216.828H46.8966V224.552H54.6207V216.828Z" fill="#F6AE2D"/>
<path d="M70.069 216.828H62.3448V224.552H70.069V216.828Z" fill="#F6AE2D"/>
<path d="M100.966 216.828H93.2414V224.552H100.966V216.828Z" fill="#F6AE2D"/>
<path d="M116.414 216.828H108.69V224.552H116.414V216.828Z" fill="#F6AE2D"/>
<path d="M124.138 216.828H116.414V224.552H124.138V216.828Z" fill="#F6AE2D"/>
<path d="M131.862 216.828H124.138V224.552H131.862V216.828Z" fill="#F6AE2D"/>
<path d="M155.034 216.828H147.31V224.552H155.034V216.828Z" fill="#F6AE2D"/>
<path d="M162.759 216.828H155.034V224.552H162.759V216.828Z" fill="#F6AE2D"/>
<path d="M170.483 216.828H162.759V224.552H170.483V216.828Z" fill="#F6AE2D"/>
<path d="M178.207 216.828H170.483V224.552H178.207V216.828Z" fill="#F6AE2D"/>
<path d="M185.931 216.828H178.207V224.552H185.931V216.828Z" fill="#F6AE2D"/>
<path d="M209.103 216.828H201.379V224.552H209.103V216.828Z" fill="#F6AE2D"/>
<path d="M224.552 216.828H216.828V224.552H224.552V216.828Z" fill="#F6AE2D"/>
<path d="M23.7241 224.552H16V232.276H23.7241V224.552Z" fill="#F6AE2D"/>
<path d="M70.069 224.552H62.3448V232.276H70.069V224.552Z" fill="#F6AE2D"/>
<path d="M85.5172 224.552H77.7931V232.276H85.5172V224.552Z" fill="#F6AE2D"/>
<path d="M100.966 224.552H93.2414V232.276H100.966V224.552Z" fill="#F6AE2D"/>
<path d="M124.138 224.552H116.414V232.276H124.138V224.552Z" fill="#F6AE2D"/>
<path d="M131.862 224.552H124.138V232.276H131.862V224.552Z" fill="#F6AE2D"/>
<path d="M139.586 224.552H131.862V232.276H139.586V224.552Z" fill="#F6AE2D"/>
<path d="M147.31 224.552H139.586V232.276H147.31V224.552Z" fill="#F6AE2D"/>
<path d="M155.034 224.552H147.31V232.276H155.034V224.552Z" fill="#F6AE2D"/>
<path d="M185.931 224.552H178.207V232.276H185.931V224.552Z" fill="#F6AE2D"/>
<path d="M193.655 224.552H185.931V232.276H193.655V224.552Z" fill="#F6AE2D"/>
<path d="M201.379 224.552H193.655V232.276H201.379V224.552Z" fill="#F6AE2D"/>
<path d="M216.828 224.552H209.103V232.276H216.828V224.552Z" fill="#F6AE2D"/>
<path d="M232.276 224.552H224.552V232.276H232.276V224.552Z" fill="#F6AE2D"/>
<path d="M240 224.552H232.276V232.276H240V224.552Z" fill="#F6AE2D"/>
<path d="M23.7241 232.276H16V240H23.7241V232.276Z" fill="#F6AE2D"/>
<path d="M31.4483 232.276H23.7241V240H31.4483V232.276Z" fill="#F6AE2D"/>
<path d="M39.1724 232.276H31.4483V240H39.1724V232.276Z" fill="#F6AE2D"/>
<path d="M46.8966 232.276H39.1724V240H46.8966V232.276Z" fill="#F6AE2D"/>
<path d="M54.6207 232.276H46.8966V240H54.6207V232.276Z" fill="#F6AE2D"/>
<path d="M62.3448 232.276H54.6207V240H62.3448V232.276Z" fill="#F6AE2D"/>
<path d="M70.069 232.276H62.3448V240H70.069V232.276Z" fill="#F6AE2D"/>
<path d="M85.5172 232.276H77.7931V240H85.5172V232.276Z" fill="#F6AE2D"/>
<path d="M93.2414 232.276H85.5172V240H93.2414V232.276Z" fill="#F6AE2D"/>
<path d="M108.69 232.276H100.966V240H108.69V232.276Z" fill="#F6AE2D"/>
<path d="M124.138 232.276H116.414V240H124.138V232.276Z" fill="#F6AE2D"/>
<path d="M131.862 232.276H124.138V240H131.862V232.276Z" fill="#F6AE2D"/>
<path d="M185.931 232.276H178.207V240H185.931V232.276Z" fill="#F6AE2D"/>
<path d="M209.103 232.276H201.379V240H209.103V232.276Z" fill="#F6AE2D"/>
<path d="M224.552 232.276H216.828V240H224.552V232.276Z" fill="#F6AE2D"/>
</svg>
