<?xml version="1.0" standalone="no"?>
<!DOCTYPE svg PUBLIC "-//W3C//DTD SVG 20010904//EN"
 "http://www.w3.org/TR/2001/REC-SVG-20010904/DTD/svg10.dtd">
<svg version="1.0" xmlns="http://www.w3.org/2000/svg"
 width="400.000000pt" height="400.000000pt" viewBox="0 0 400.000000 400.000000"
 preserveAspectRatio="xMidYMid meet">
<metadata>
Created by potrace 1.14, written by Peter Selinger 2001-2017
</metadata>
<g transform="translate(0.000000,400.000000) scale(0.100000,-0.100000)"
fill="#000000" stroke="none">
<path d="M1845 3994 c-234 -27 -409 -68 -576 -134 -764 -303 -1269 -1042
-1269 -1860 0 -383 119 -778 330 -1098 77 -118 124 -175 242 -298 301 -312
669 -504 1113 -581 140 -24 490 -24 630 0 499 87 923 331 1235 712 194 237
351 565 409 855 181 903 -243 1778 -1064 2195 -216 110 -448 178 -697 205 -90
9 -284 11 -353 4z m520 -550 c30 -20 32 -34 4 -34 -12 0 -19 5 -16 13 2 6 -3
17 -12 24 -24 18 -4 16 24 -3z m-580 -14 c-3 -5 -14 -10 -23 -9 -14 0 -13 2 3
9 27 11 27 11 20 0z m645 -40 c4 0 10 -9 13 -20 7 -27 -5 -25 -32 7 -18 20
-20 25 -6 20 9 -4 20 -7 25 -7z m-834 -78 c-18 -16 -18 -16 -6 6 6 13 14 21
18 18 3 -4 -2 -14 -12 -24z m853 6 c11 -10 14 -10 18 -1 8 21 70 -56 67 -83
-1 -13 2 -24 7 -24 5 0 9 -6 9 -12 -1 -7 -15 5 -33 27 -17 22 -47 55 -65 73
-18 17 -30 32 -25 32 5 0 15 -6 22 -12z m-14 -28 c3 -6 -1 -7 -9 -4 -18 7 -21
14 -7 14 6 0 13 -4 16 -10z m219 -72 c88 -93 119 -134 114 -150 -3 -8 -12 -1
-22 17 -12 21 -16 24 -14 10 3 -26 -9 -45 -28 -45 -8 0 -12 5 -9 10 4 6 10 8
14 6 4 -3 5 11 3 30 -3 20 -10 34 -18 34 -8 0 -14 5 -14 10 0 6 -5 10 -11 10
-15 0 -38 30 -39 50 0 8 -15 25 -33 36 -32 21 -46 54 -23 54 6 0 42 -33 80
-72z m-1372 0 c-7 -7 -12 -8 -12 -2 0 14 12 26 19 19 2 -3 -1 -11 -7 -17z
m1204 -40 l19 -21 -30 18 c-41 26 -40 25 -23 25 8 0 23 -10 34 -22z m-1285
-45 c-8 -15 -10 -15 -11 -2 0 17 10 32 18 25 2 -3 -1 -13 -7 -23z m728 6 c24
-10 52 -19 62 -19 11 0 19 -3 19 -7 0 -5 10 -19 21 -33 17 -21 19 -22 10 -3
-6 12 -11 25 -11 29 0 9 81 -4 95 -15 52 -43 237 -121 232 -98 -5 26 35 16 67
-16 19 -20 44 -38 56 -42 11 -3 21 -14 21 -23 1 -15 2 -15 6 1 4 16 11 13 51
-20 26 -21 55 -47 64 -58 10 -11 17 -16 18 -11 0 11 29 -25 30 -37 0 -4 -9 -3
-20 3 -23 12 -25 3 -11 -48 6 -20 6 -32 0 -32 -15 0 -11 -44 11 -124 12 -41
23 -96 25 -122 3 -27 9 -58 14 -69 18 -42 33 -181 26 -255 -4 -41 -7 -89 -6
-107 0 -18 -4 -44 -9 -58 -7 -18 -7 -33 1 -47 8 -15 8 -19 -1 -13 -8 5 -11 0
-9 -16 1 -13 -3 -42 -9 -64 -6 -22 -23 -83 -37 -135 -14 -52 -30 -107 -36
-122 -15 -36 -37 -43 -49 -15 -5 12 -9 16 -9 10 -1 -22 -31 -14 -56 15 -28 31
-32 83 -10 122 9 16 15 19 15 10 1 -9 5 -6 10 8 6 13 6 32 0 48 -6 14 -8 29
-5 34 11 18 -50 120 -71 120 -6 0 -71 47 -92 67 -29 28 -100 83 -106 83 -3 0
-6 -13 -6 -28 0 -16 -6 -36 -12 -45 -12 -15 -16 -15 -42 -2 -38 20 -58 19 -86
-5 -13 -11 -28 -20 -34 -21 -6 0 -29 -2 -51 -4 -23 -2 -50 3 -62 11 -12 8 -32
14 -44 14 -27 0 -80 -31 -75 -45 5 -15 -13 -45 -28 -45 -8 0 -19 -7 -26 -15
-11 -14 -15 -14 -36 0 -17 11 -24 12 -28 2 -2 -6 -4 -2 -2 11 3 26 42 75 69
85 28 11 19 26 -20 33 -31 6 -40 3 -57 -17 -12 -13 -51 -48 -88 -78 -88 -71
-100 -97 -87 -185 9 -58 8 -70 -5 -85 -18 -20 -21 -36 -6 -26 15 9 12 -2 -6
-30 -9 -14 -14 -31 -11 -39 3 -7 -5 -23 -19 -35 -13 -11 -24 -16 -24 -11 0 6
-3 9 -7 9 -25 -4 -37 7 -60 58 -32 69 -70 217 -86 331 -7 48 -16 80 -21 75 -5
-4 -3 3 4 17 14 27 15 107 1 124 -10 13 24 327 44 409 16 62 19 117 8 155 -4
18 -8 20 -15 10 -5 -8 -6 2 -2 26 5 30 4 37 -6 31 -9 -6 -10 -3 -1 13 6 11 8
28 5 37 -6 14 -8 14 -19 -1 -11 -15 -12 -15 -18 5 -3 13 1 28 11 38 10 9 24
33 32 53 8 21 30 64 49 96 31 52 43 63 102 92 47 23 89 34 136 39 37 3 74 9
81 12 6 4 54 7 105 8 71 1 102 -3 136 -18z m652 -36 c13 -16 12 -17 -3 -4 -17
13 -22 21 -14 21 2 0 10 -8 17 -17z m-1391 -3 c0 -5 -5 -10 -11 -10 -5 0 -7 5
-4 10 3 6 8 10 11 10 2 0 4 -4 4 -10z m1510 -11 c0 -4 -7 -9 -15 -13 -9 -3
-15 0 -15 8 0 7 7 13 15 13 8 0 15 -4 15 -8z m-410 -29 c0 -5 -7 -7 -15 -4 -8
4 -15 8 -15 10 0 2 7 4 15 4 8 0 15 -4 15 -10z m20 -31 c0 -11 -27 -12 -34 -1
-2 4 4 9 15 9 10 1 19 -2 19 -8z m35 1 c-3 -5 -10 -10 -16 -10 -5 0 -9 5 -9
10 0 6 7 10 16 10 8 0 12 -4 9 -10z m-1171 -27 c-8 -32 -12 -39 -19 -31 -9 8
6 58 16 58 5 0 6 -12 3 -27z m1611 -21 c-3 -3 -5 0 -5 6 0 6 -7 9 -16 5 -14
-5 -14 -3 -3 15 l14 22 8 -22 c4 -11 5 -23 2 -26z m-1469 -40 c-18 -16 -18
-16 -6 6 6 13 14 21 18 18 3 -4 -2 -14 -12 -24z m-151 8 c-3 -5 -11 -10 -16
-10 -6 0 -7 5 -4 10 3 6 11 10 16 10 6 0 7 -4 4 -10z m-10 -50 c3 -5 -1 -10
-10 -10 -9 0 -13 5 -10 10 3 6 8 10 10 10 2 0 7 -4 10 -10z m1535 -80 c0 -5
-2 -10 -4 -10 -3 0 -8 5 -11 10 -3 6 -1 10 4 10 6 0 11 -4 11 -10z m163 -50
c3 -11 1 -20 -4 -20 -5 0 -9 9 -9 20 0 11 2 20 4 20 2 0 6 -9 9 -20z m-1633
-15 c0 -8 -5 -15 -11 -15 -5 0 -7 -6 -3 -12 5 -10 4 -10 -5 -2 -12 11 -5 44
10 44 5 0 9 -7 9 -15z m1632 -45 c4 0 8 -4 8 -10 0 -16 -18 -12 -40 10 -27 27
-26 46 2 20 12 -11 25 -20 30 -20z m-1639 -30 c-3 -12 -8 -19 -11 -16 -5 6 5
36 12 36 2 0 2 -9 -1 -20z m45 -20 c-1 -16 -6 -30 -11 -30 -5 0 -6 7 -3 16 3
9 6 22 6 30 0 8 2 14 5 14 3 0 4 -13 3 -30z m1592 0 c0 -19 -11 -26 -23 -14
-8 8 3 34 14 34 5 0 9 -9 9 -20z m-1644 -54 c0 -13 -4 -22 -8 -20 -4 3 -11 -4
-17 -13 -16 -28 -13 -5 4 27 19 36 23 37 21 6z m-5 -79 c-10 -9 -11 -8 -5 6 3
10 9 15 12 12 3 -3 0 -11 -7 -18z m33 -152 c-8 -13 -12 -29 -8 -36 5 -8 12 -3
21 15 18 35 31 33 25 -4 -2 -16 -7 -30 -11 -30 -4 0 -5 -24 -1 -52 3 -29 3
-72 -1 -95 -3 -24 -2 -43 3 -43 4 0 5 -7 2 -15 -4 -8 -10 -13 -14 -10 -9 5
-20 -43 -20 -87 0 -16 7 -45 17 -66 9 -20 17 -40 18 -44 2 -5 4 -11 5 -15 1
-5 3 -12 4 -18 1 -5 6 -18 10 -28 6 -12 4 -24 -6 -34 -14 -13 -19 -10 -53 31
-45 56 -61 107 -75 244 -16 147 -1 227 47 255 7 4 13 14 13 22 0 8 8 19 18 24
24 15 24 14 6 -14z m1572 -42 c6 -21 2 -30 -14 -41 -27 -18 -27 -33 -2 -108
12 -35 18 -69 15 -84 l-7 -25 -15 30 c-9 17 -22 34 -29 38 -8 5 -13 23 -12 45
0 20 -2 51 -6 69 -6 26 -2 39 19 68 33 42 42 44 51 8z m-1549 -365 c-3 -8 -6
-5 -6 6 -1 11 2 17 5 13 3 -3 4 -12 1 -19z m611 -250 c10 -10 15 -10 21 1 6 9
16 11 27 6 32 -12 106 -15 164 -6 34 6 59 5 67 0 7 -7 14 -6 18 1 11 18 26 11
23 -12 -2 -13 -10 -23 -18 -23 -8 0 -21 -4 -28 -9 -7 -4 -20 -5 -29 -2 -11 4
-14 2 -9 -9 4 -11 -2 -15 -24 -15 -20 0 -30 -5 -30 -15 0 -11 7 -14 28 -10 23
5 68 12 189 30 12 2 36 13 53 25 19 14 35 19 41 13 14 -14 14 -124 -1 -133 -7
-4 -10 -12 -7 -17 9 -14 -21 -53 -39 -53 -10 0 -12 -5 -8 -12 13 -21 12 -50
-3 -55 -7 -3 -13 -12 -13 -20 0 -8 -4 -12 -8 -9 -5 3 -8 -4 -7 -16 2 -23 -20
-50 -48 -61 -13 -5 -17 0 -17 21 0 20 -3 23 -10 12 -5 -8 -12 -11 -16 -8 -3 4
5 18 19 32 24 24 24 26 7 26 -11 0 -20 4 -20 10 0 5 6 7 14 4 24 -9 29 43 7
67 -11 12 -24 18 -30 15 -5 -4 -14 1 -19 10 -6 11 -14 14 -23 8 -27 -16 -57
-12 -64 10 -6 20 -6 20 -17 -4 -10 -24 -10 -24 -18 -5 -5 11 -9 15 -9 8 -1 -6
-10 -10 -21 -8 -13 2 -20 -2 -20 -11 0 -18 -16 -19 -23 -1 -6 15 -77 11 -77
-5 0 -5 -5 -6 -12 -2 -6 4 -16 0 -22 -8 -6 -8 -19 -17 -30 -21 -12 -5 -16 -12
-11 -25 20 -49 22 -81 6 -94 -45 -38 -47 -38 -47 -13 0 14 5 25 10 25 6 0 0 7
-12 16 -13 9 -21 22 -19 29 4 8 -3 11 -23 9 -24 -3 -27 0 -22 18 3 13 -1 24
-12 30 -9 5 -16 20 -16 33 0 14 -4 25 -9 25 -4 0 -8 10 -7 23 1 12 -4 27 -10
34 -6 6 -12 39 -12 72 -1 73 10 78 65 26 20 -19 45 -35 54 -35 10 0 21 -4 24
-10 3 -5 15 -10 26 -10 27 0 25 37 -3 46 -23 7 -38 21 -38 38 0 4 7 6 15 2 8
-3 15 -1 15 5 0 6 7 9 15 5 8 -3 15 -1 15 4 0 14 24 12 38 -2z m139 -240 c-3
-8 -6 -5 -6 6 -1 11 2 17 5 13 3 -3 4 -12 1 -19z m-164 -33 c-3 -9 -8 -14 -10
-11 -3 3 -2 9 2 15 9 16 15 13 8 -4z m17 -95 c0 -5 -5 -10 -11 -10 -5 0 -7 5
-4 10 3 6 8 10 11 10 2 0 4 -4 4 -10z m690 -548 c-13 -100 -20 -202 -17 -225
6 -41 3 -47 -40 -96 -53 -61 -143 -124 -222 -156 -146 -59 -469 -32 -639 54
-69 35 -155 98 -173 126 -7 11 -16 78 -21 155 -4 74 -13 205 -19 291 -11 159
-4 359 13 359 4 0 14 -11 20 -25 6 -14 17 -25 25 -25 7 0 13 -9 13 -19 0 -11
8 -26 18 -33 11 -7 25 -24 32 -38 18 -35 61 -80 72 -74 4 3 15 -2 24 -10 8 -9
22 -16 30 -16 8 0 12 -4 9 -10 -3 -5 4 -10 15 -10 12 0 35 -9 51 -21 16 -11
38 -22 50 -24 11 -2 26 -9 33 -14 7 -6 31 -13 54 -17 23 -3 47 -13 53 -20 8
-10 16 -11 29 -4 11 6 21 6 24 1 3 -5 26 -7 52 -5 38 2 45 0 40 -13 -5 -13 -3
-13 20 2 22 14 28 15 36 4 7 -11 11 -11 14 -2 4 10 10 10 24 0 15 -9 22 -9 32
1 9 9 9 12 0 12 -7 0 -12 4 -12 10 0 5 7 6 17 3 10 -4 14 -2 10 4 -3 5 13 19
36 31 23 12 65 46 94 75 29 30 55 52 57 49 3 -2 10 7 16 22 5 15 14 25 19 22
11 -7 35 20 27 32 -3 5 5 15 18 22 13 6 34 35 47 63 l24 51 9 -175 c8 -154 6
-194 -14 -357z"/>
<path d="M1754 2622 c2 -4 -30 -8 -73 -10 -45 -2 -80 -8 -86 -16 -13 -17 -45
-28 -45 -16 0 16 -53 12 -78 -6 -25 -17 -30 -36 -7 -28 10 4 15 0 15 -11 0
-11 -6 -15 -19 -10 -10 3 -24 -1 -31 -10 -12 -14 -8 -15 32 -12 25 2 49 6 54
9 5 3 34 5 64 4 30 -1 65 1 77 5 15 6 29 2 45 -11 30 -25 16 -36 -61 -45 -65
-8 -107 -24 -138 -54 -21 -19 -21 -22 -6 -52 12 -25 20 -30 40 -26 13 2 50 -1
83 -8 33 -7 61 -11 63 -9 2 3 17 -2 33 -10 l28 -15 -45 -20 c-59 -27 -21 -26
61 2 51 18 64 26 62 40 -2 12 4 21 17 24 11 3 22 11 25 19 3 8 12 14 21 14 34
0 10 88 -31 115 -32 21 -22 47 13 34 32 -12 30 -12 36 11 3 11 1 20 -4 20 -6
0 -8 12 -7 27 2 22 -1 28 -17 29 -11 0 -27 3 -35 7 -25 9 -91 16 -86 9z m-124
-207 c-35 -13 -66 -22 -69 -20 -2 3 9 10 25 16 16 6 38 15 49 19 11 5 29 9 40
9 11 0 -9 -11 -45 -24z m14 -51 c4 -9 4 -19 1 -22 -7 -8 -35 19 -29 29 8 14
21 11 28 -7z"/>
<path d="M2156 2623 c-26 -7 -46 -28 -46 -47 0 -19 -21 -66 -30 -66 -14 0 0
-101 20 -139 21 -41 76 -91 101 -91 8 0 32 -9 54 -20 27 -14 59 -20 100 -20
73 0 115 19 45 21 -45 1 -133 27 -96 28 12 1 16 6 13 15 -6 16 -2 18 83 36 40
9 66 9 94 2 37 -11 38 -10 51 22 11 25 12 43 5 67 -6 19 -10 36 -10 38 0 2 11
0 25 -3 18 -5 25 -2 25 9 0 9 -9 15 -22 15 -20 0 -20 1 -4 13 16 11 14 15 -18
51 -30 35 -44 41 -108 54 -77 15 -250 24 -282 15z m84 -253 c0 -5 -10 -10 -22
-9 -22 0 -22 1 -3 9 11 5 21 9 23 9 1 1 2 -3 2 -9z m-33 -46 c-3 -3 -12 -4
-19 -1 -8 3 -5 6 6 6 11 1 17 -2 13 -5z m70 -20 c-3 -3 -12 -4 -19 -1 -8 3 -5
6 6 6 11 1 17 -2 13 -5z"/>
<path d="M2560 2426 c0 -9 5 -16 10 -16 6 0 10 4 10 9 0 6 -4 13 -10 16 -5 3
-10 -1 -10 -9z"/>
<path d="M1176 2265 c-9 -24 -7 -45 3 -45 5 0 13 9 16 21 8 26 -9 48 -19 24z"/>
<path d="M1850 1619 c0 -10 47 -17 60 -9 7 4 -3 9 -24 12 -20 2 -36 1 -36 -3z"/>
<path d="M2135 1600 c-19 -8 -19 -9 2 -9 12 -1 25 4 28 9 7 12 -2 12 -30 0z"/>
<path d="M2265 1480 c3 -5 8 -10 11 -10 2 0 4 5 4 10 0 6 -5 10 -11 10 -5 0
-7 -4 -4 -10z"/>
<path d="M1780 1453 c0 -14 3 -23 7 -19 10 10 11 46 1 46 -4 0 -8 -12 -8 -27z"/>
<path d="M2108 913 c6 -2 18 -2 25 0 6 3 1 5 -13 5 -14 0 -19 -2 -12 -5z"/>
<path d="M2071 826 c-14 -15 -19 -26 -12 -31 16 -9 66 17 66 35 0 24 -29 22
-54 -4z"/>
<path d="M2140 830 c0 -5 5 -10 10 -10 6 0 10 5 10 10 0 6 -4 10 -10 10 -5 0
-10 -4 -10 -10z"/>
</g>
</svg>
